<?xml version="1.0" encoding="UTF-8"?>
<svg width="160px" height="40px" viewBox="0 0 160 40" version="1.1" xmlns="http://www.w3.org/2000/svg" xmlns:xlink="http://www.w3.org/1999/xlink">
    <!-- Generator: Sketch 57.1 (83088) - https://sketch.com -->
    <title>logo/choerodon</title>
    <desc>Created with Sketch.</desc>
    <defs>
        <rect id="path-1" x="0" y="0" width="160" height="40"></rect>
    </defs>
    <g id="页面-1" stroke="none" stroke-width="1" fill="none" fill-rule="evenodd">
        <g id="产品分类" transform="translate(-506.000000, -586.000000)">
            <g id="Group-38备份" transform="translate(471.000000, 566.000000)">
                <g id="logo/choerodon" transform="translate(35.000000, 20.000000)">
                    <mask id="mask-2" fill="white">
                        <use xlink:href="#path-1"></use>
                    </mask>
                    <use id="矩形" fill-opacity="0.01" fill="#FFFFFF" xlink:href="#path-1"></use>
                    <g id="choerodon_logo_fixed" mask="url(#mask-2)">
                        <g transform="translate(2.000000, 7.000000)">
                            <g id="编组-9" stroke="none" stroke-width="1" fill="none" fill-rule="evenodd" transform="translate(0.263605, 0.349934)">
                                <path d="M25.5686447,22.5997105 C26.7921711,22.8764605 30.0875921,20.5487763 30.4297105,20.8564342 C30.6609868,21.0646184 29.4889737,22.5954474 29.4889737,22.5954474 L28.3940526,23.5543026 C28.3940526,23.5543026 25.2023684,22.5169342 25.5686447,22.5997105 Z M30.832579,10.5850658 C31.9573421,11.1403421 32.8483421,14.187079 33.3076974,14.1632763 C33.6185526,14.1472895 33.6718421,12.2199869 33.6718421,12.2199869 L33.424579,10.7857895 C33.424579,10.7857895 30.4957895,10.4188026 30.8322237,10.5850658 L30.832579,10.5850658 Z" id="形状" stroke="#000000" stroke-width="0.5" fill="#FFFFFF" fill-rule="nonzero"></path>
                                <path d="M20.9385,1.24875 L15.6415263,-3.90798505e-14 C15.6415263,-3.90798505e-14 8.5486974,2.58951316 4.36511842,6.72015788 C7.26832898,7.31238155 8.11421049,7.15535528 8.11421049,7.15535528 L20.9385,1.24875 Z" id="路径" stroke="#000000" stroke-width="0.822526316" fill="#FF5F2E" fill-rule="nonzero" stroke-linejoin="round"></path>
                                <path d="M7.81597009e-14,14.0623815 C7.81597009e-14,14.0623815 11.5638158,1.45551316 20.9385,1.24875 C30.3131842,1.04198684 33.1254474,10.1040395 33.8544474,11.9791184 C30.3245526,12.9418815 26.823079,13.302829 22.7471447,12.1524869 C22.2071447,18.2893026 25.3341711,22.2607895 30.3284605,22.4455263 C25.7008026,25.9640526 22.9151842,26.4919737 19.4801447,26.249329 C13.8662763,25.8532105 5.10619737,21.2500658 1.14785526,9.47913155 C0.479277691,10.9207004 0.089794874,12.4758591 7.81597009e-14,14.0623815 Z" id="路径" fill="#5CC2F2" fill-rule="nonzero"></path>
                                <path d="M17.535079,21.8596974 C10.6316052,21.1012105 6.29206579,17.1982895 2.09036842,11.95425 C6.37128947,21.9016184 14.2744737,25.8823421 19.4769474,26.249329 C22.9119868,26.4916184 25.6976052,25.9640526 30.3249079,22.4455263 C28.5043888,22.4196319 26.7527511,21.7454793 25.3846184,20.5441579 C24.1340921,21.2386974 22.22775,22.3755395 17.535079,21.8596974 L17.535079,21.8596974 Z" id="路径" fill="#B2E7FB" fill-rule="nonzero" opacity="0.9"></path>
                                <path d="M-1.0658141e-14,14.0623815 C-1.0658141e-14,14.0623815 11.5638158,1.45551316 20.9385,1.24875 C30.3131842,1.04198684 33.3869211,9.85535528 33.8548026,11.9791184 C30.650329,12.9191447 27.3105,13.4591447 22.7475,12.1524869 C22.2075,18.2893026 25.3345263,22.2607895 30.3288158,22.4455263 C25.7011579,25.9640526 22.9155395,26.4919737 19.4805,26.249329 C13.8662763,25.8532105 5.10619737,21.2500658 1.14785526,9.47913155 C0.479277691,10.9207004 0.089794874,12.4758591 -1.0658141e-14,14.0623815 Z" id="路径" stroke="#000000" stroke-width="0.822526316" stroke-linecap="round" stroke-linejoin="round"></path>
                                <path d="M19.8148026,13.7678684 L13.6069342,10.8138553 C11.9386913,12.7147507 10.8533162,15.0559541 10.4806184,17.5574605 C14.8574605,16.7986184 19.8148026,13.7682237 19.8148026,13.7682237 L19.8148026,13.7678684 Z" id="路径" stroke="#000000" stroke-width="0.822526316" fill="#FF5F2E" fill-rule="nonzero" stroke-linejoin="round"></path>
                                <circle id="椭圆形" stroke="#000000" stroke-width="0.822631579" fill="#FFFFFF" fill-rule="nonzero" stroke-linecap="round" stroke-linejoin="round" cx="25.9107632" cy="8.68440788" r="1.96425"></circle>
                                <ellipse id="椭圆形" fill="#000000" fill-rule="nonzero" cx="26.1541184" cy="8.68440788" rx="1.00859211" ry="1"></ellipse>
                                <path d="M12.9806052,12.0199737 C12.9806052,12.0199737 14.3696842,13.1113421 15.7100921,13.302829 M11.6941974,13.7056974 C12.6621701,13.9851836 13.6512937,14.1853846 14.6517632,14.3043158 M10.9413947,15.688421 C12.0447745,15.702426 13.1458317,15.5836249 14.220829,15.334579" id="形状" stroke="#000000" stroke-width="0.822526316" stroke-linecap="round" stroke-linejoin="round"></path>
                                <path d="M31.3654737,15.26175 C32.9309218,14.9887241 34.540629,15.3509401 35.8382368,16.2682105 C35.8609306,16.1480955 35.8708149,16.0259115 35.8677237,15.9037105 C35.8144342,13.7323421 32.9030526,13.2403026 31.0812632,13.4481315 C29.2594737,13.6559605 27.2454868,14.8237105 27.0405,17.1631184 C27.0141816,17.513199 27.0636197,17.8648398 27.1854474,18.1940921 C28.0701628,16.6408827 29.6035409,15.5651069 31.3651184,15.26175 L31.3654737,15.26175 Z" id="路径" stroke="#231815" stroke-width="0.5" fill="#FFC7C7" fill-rule="nonzero" stroke-linejoin="round"></path>
                                <path d="M31.7388552,17.4206842 C32.7240456,17.2488557 33.7372059,17.4737611 34.5571579,18.0463026 C35.0758421,17.4388026 35.6979079,17.0117763 35.8382368,16.2682105 C34.4588558,15.2956671 32.733181,14.9502042 31.085717,15.3168034 C29.4382529,15.6834025 28.0219075,16.7280381 27.1850921,18.1937369 C27.5107084,18.989882 28.034053,19.6897942 28.7056184,20.2272631 C29.0749104,18.7755206 30.2628568,17.6763432 31.7388552,17.4206842 L31.7388552,17.4206842 Z" id="路径" stroke="#231815" stroke-width="0.5" fill="#FFE2E2" fill-rule="nonzero" stroke-linejoin="round"></path>
                                <path d="M28.7056184,20.2272631 C30.3220658,21.6135 32.6174211,22.3943684 33.2590263,21.533921 C34.038829,20.4880263 33.6036316,19.5742895 34.182,18.56925 C34.2906089,18.3837059 34.4161999,18.2086397 34.5571579,18.0463026 C33.5345459,17.3342017 32.2276764,17.1690205 31.0600434,17.6042865 C29.8924106,18.0395525 29.0125634,19.01989 28.7056184,20.2276184 L28.7056184,20.2272631 Z" id="路径" stroke="#231815" stroke-width="0.5" fill="#F6F6F6" fill-rule="nonzero" stroke-linejoin="round"></path>
                                <path d="M31.0812632,13.4992895 C29.259829,13.7071184 27.2454868,14.8748684 27.0405,17.213921 C27.014057,17.5639763 27.0633742,17.9156188 27.1850921,18.2448947 C27.5107221,19.041032 28.0340643,19.7409412 28.7056184,20.278421 C30.3220658,21.6643026 32.6170658,22.4455263 33.2590263,21.5847237 C34.038829,20.538829 33.6036316,19.6250921 34.182,18.6204079 C34.2905986,18.4348571 34.4161902,18.25979 34.5571579,18.0974605 C35.0758421,17.4899605 35.6975526,17.0629342 35.8382368,16.3193684 C35.8608313,16.1991235 35.8705965,16.0768198 35.8673684,15.9545131 C35.8147895,13.7831447 32.9030526,13.2914605 31.0812632,13.4992895 L31.0812632,13.4992895 Z" id="路径" stroke="#000000" stroke-width="0.822526316" stroke-linecap="round" stroke-linejoin="round"></path>
                                <circle id="椭圆形" fill="#FFFFFF" fill-rule="nonzero" cx="26.4365526" cy="8.32594737" r="1"></circle>
                            </g>
                            <path d="M75.910855,10.3662237 C78.4393672,10.3662237 80.4891316,12.4159878 80.4891316,14.9445 C80.4891316,17.4730122 78.4393672,19.5227763 75.910855,19.5227763 C73.3823428,19.5227763 71.3325791,17.4730122 71.3325791,14.9445 C71.3355154,12.4172052 73.3835605,10.3691603 75.910855,10.3662237 L75.910855,10.3662237 Z M75.910855,8.99632892 C72.6257711,8.99632892 69.9626842,11.6594158 69.9626842,14.9445 C69.9626842,18.2295842 72.6257711,20.8926711 75.910855,20.8926711 C79.1959396,20.8926711 81.8590266,18.2295842 81.8590266,14.9445 C81.8590266,11.6594158 79.1959396,8.99632892 75.910855,8.99632892 L75.910855,8.99632892 Z M137.438527,10.3665789 C139.290299,10.3665789 140.959727,11.4820786 141.668336,13.1929069 C142.376945,14.9037351 141.985182,16.8729612 140.675731,18.1823111 C139.366279,19.491661 137.397023,19.8832712 135.68625,19.174529 C133.975476,18.4657869 132.860106,16.7962723 132.86025,14.9445 C132.863186,12.4172052 134.911231,10.3691603 137.438527,10.3662237 L137.438527,10.3665789 Z M137.438527,8.99668424 C135.032683,8.99668424 132.863742,10.445948 131.943099,12.6686708 C131.022456,14.8913936 131.531421,17.4498359 133.23266,19.150973 C134.933899,20.85211 137.492371,21.3609226 139.715039,20.4401468 C141.937707,19.519371 143.386841,17.350343 143.386697,14.9445 C143.386501,11.6595546 140.723471,8.99668424 137.438527,8.99668424 Z M109.485711,10.3662237 C112.014223,10.3662237 114.063987,12.4159878 114.063987,14.9445 C114.063987,17.4730122 112.014223,19.5227763 109.485711,19.5227763 C106.957199,19.5227763 104.907434,17.4730122 104.907434,14.9445 C104.910371,12.4172052 106.958416,10.3691603 109.485711,10.3662237 L109.485711,10.3662237 Z M109.485711,8.99632892 C106.200626,8.99632892 103.537539,11.6594158 103.537539,14.9445 C103.537539,18.2295842 106.200626,20.8926711 109.485711,20.8926711 C112.770795,20.8926711 115.433882,18.2295842 115.433882,14.9445 C115.433882,11.6594158 112.770795,8.99632892 109.485711,8.99632892 L109.485711,8.99632892 Z M58.71825,4.15835527 L60.0881447,4.15835527 L60.0881447,20.8930263 L58.71825,20.8930263 L58.71825,4.15835527 Z M123.462118,10.3665789 C125.31389,10.3665789 126.983319,11.4820786 127.691928,13.1929069 C128.400538,14.9037351 128.008775,16.8729612 126.699323,18.1823111 C125.389872,19.491661 123.420615,19.8832712 121.709842,19.174529 C119.999069,18.4657869 118.883699,16.7962723 118.883842,14.9445 C118.886779,12.4172052 120.934824,10.3691603 123.462118,10.3662237 L123.462118,10.3665789 Z M123.462118,8.99668424 C121.056275,8.99668424 118.887334,10.445948 117.966691,12.6686708 C117.046048,14.8913936 117.555013,17.4498359 119.256252,19.150973 C120.95749,20.85211 123.515963,21.3609226 125.738631,20.4401468 C127.961299,19.519371 129.410433,17.350343 129.410289,14.9445 C129.410093,11.6595546 126.747064,8.99668424 123.462118,8.99668424 L123.462118,8.99668424 Z" id="形状" stroke="#282828" stroke-width="1.15173684" fill="#282828" fill-rule="nonzero"></path>
                            <path d="M128.04075,4.15835527 L129.410645,4.15835527 L129.410645,20.8930263 L128.04075,20.8930263 L128.04075,4.15835527 Z M66.5127237,13.5788684 L67.8826183,13.5788684 L67.8826183,20.8930263 L66.5127237,20.8930263 L66.5127237,13.5788684 Z M63.3007895,8.99668424 C62.0854571,8.99659001 60.9198694,9.47931282 60.0604663,10.3386493 C59.2010632,11.1979857 58.71825,12.363536 58.71825,13.5788684 L60.0881447,13.5788684 C60.0881447,11.8047699 61.5263357,10.3665789 63.3004342,10.3665789 C65.0745327,10.3665789 66.5127237,11.8047699 66.5127237,13.5788684 L67.8826183,13.5788684 C67.8826183,11.048198 65.8311047,8.99668424 63.3004342,8.99668424 L63.3007895,8.99668424 Z M84.7981183,13.5746053 L95.1927633,13.5746053 L95.1927633,14.9445 L84.7981183,14.9445 L84.7981183,13.5746053 Z" id="形状" stroke="#282828" stroke-width="1.15173684" fill="#282828" fill-rule="nonzero"></path>
                            <path d="M89.8872633,8.99632892 C86.6021787,8.99632892 83.9390924,11.6594158 83.9390924,14.9445 L85.3089867,14.9445 C85.3089867,12.4159878 87.3587511,10.3662237 89.8872633,10.3662237 C92.4157755,10.3662237 94.4655392,12.4159878 94.4655392,14.9445 L95.8354342,14.9445 C95.8354342,11.6594158 93.1723472,8.99632892 89.8872633,8.99632892 L89.8872633,8.99632892 Z M89.8872633,19.5227763 C87.3599681,19.5198397 85.3119236,17.4717948 85.3089867,14.9445 L83.9390917,14.9445 C83.9386516,17.636782 85.7468423,19.9935883 88.3474081,20.6903244 C90.9479738,21.3870606 93.6922484,20.2499379 95.0378683,17.9180527 L93.8502234,17.2323947 C93.0328423,18.6485817 91.5224076,19.521533 89.8872633,19.5227763 L89.8872633,19.5227763 Z M97.9155,8.99668424 L99.2853949,8.99668424 L99.2853949,20.8930263 L97.9155,20.8930263 L97.9155,8.99668424 Z" id="形状" stroke="#282828" stroke-width="1.15173684" fill="#282828" fill-rule="nonzero"></path>
                            <path d="M102.497684,10.3665789 L102.497684,8.99668424 C99.9685388,8.99668424 97.9176573,11.0458163 97.9155,13.5749605 L99.285395,13.5749605 C99.2895044,11.8032 100.72592,10.3685315 102.497684,10.3665789 L102.497684,10.3665789 Z M145.466763,9.0794605 L146.836658,9.0794605 L146.836658,20.8930263 L145.466763,20.8930263 L145.466763,9.0794605 Z M153.261592,13.5788684 L154.631487,13.5788684 L154.631487,20.8930263 L153.261592,20.8930263 L153.261592,13.5788684 Z M153.261237,13.5746053 L154.631132,13.5746053 C154.628779,11.0455998 152.577954,8.99668424 150.048947,8.99668424 L150.048947,10.3665789 C151.820573,10.3685309 153.256932,11.8029835 153.261237,13.5746053 L153.261237,13.5746053 Z" id="形状" stroke="#282828" stroke-width="1.15173684" fill="#282828" fill-rule="nonzero"></path>
                            <path d="M150.048947,10.3665789 L150.048947,8.99668424 C147.519802,8.99668424 145.46892,11.0458163 145.466763,13.5749605 L146.836658,13.5749605 C146.840767,11.8032 148.277183,10.3685315 150.048947,10.3665789 L150.048947,10.3665789 Z M41.9885527,12.5255132 C41.9875444,11.3294649 42.2936025,10.153184 42.8774211,9.10930266 L41.6830263,8.41973684 C40.2157192,11.0411602 40.2587873,14.2463431 41.796,16.8273947 L42.9900395,16.1381842 C42.3334098,15.0476483 41.9871198,13.7984739 41.9885527,12.5255132 L41.9885527,12.5255132 Z M49.0206316,5.49343421 C51.5726844,5.49541354 53.9236058,6.8790762 55.1641973,9.10930266 L56.3582368,8.41973684 C54.8717164,5.7628643 52.065088,4.11711456 49.0206316,4.11711456 C45.9761752,4.11711456 43.1695468,5.7628643 41.6830263,8.41973684 L42.8770658,9.10894734 C44.1177499,6.87885804 46.4686535,5.49534177 49.0206316,5.49343421 L49.0206316,5.49343421 Z" id="形状" stroke="#282828" stroke-width="1.15173684" fill="#282828" fill-rule="nonzero"></path>
                            <path d="M49.0206316,19.5575921 C46.5492853,19.5561279 44.2599725,18.2579291 42.9900395,16.1378289 L41.7956447,16.8273947 C43.3119152,19.3739618 46.0568367,20.9342352 49.0206316,20.9342352 C51.9844264,20.9342352 54.729348,19.3739618 56.2456184,16.8273947 L55.0512237,16.1381842 C53.7812538,18.2582002 51.4919247,19.5562734 49.0206316,19.5575921 L49.0206316,19.5575921 Z" id="路径" stroke="#282828" stroke-width="1.15173684" fill="#282828" fill-rule="nonzero"></path>
                        </g>
                    </g>
                </g>
            </g>
        </g>
    </g>
</svg>