<?xml version="1.0" encoding="UTF-8"?>
<svg width="160px" height="40px" viewBox="0 0 160 40" version="1.1" xmlns="http://www.w3.org/2000/svg" xmlns:xlink="http://www.w3.org/1999/xlink">
    <!-- Generator: Sketch 64 (93537) - https://sketch.com -->
    <title>logo/hippius</title>
    <desc>Created with Sketch.</desc>
    <defs>
        <rect id="path-1" x="0" y="0" width="160" height="40"></rect>
    </defs>
    <g id="首页" stroke="none" stroke-width="1" fill="none" fill-rule="evenodd">
        <g id="画板" transform="translate(-288.000000, -100.000000)">
            <g id="logo/hippius" transform="translate(288.000000, 100.000000)">
                <mask id="mask-2" fill="white">
                    <use xlink:href="#path-1"></use>
                </mask>
                <use id="矩形" fill-opacity="0.01" fill="#FFFFFF" xlink:href="#path-1"></use>
                <g id="编组-8" mask="url(#mask-2)">
                    <g transform="translate(12.000000, 1.000000)">
                        <g id="编组-3" stroke-width="1" fill="none" fill-rule="evenodd">
                            <path d="M15.487866,11.0412249 C16.6715764,11.7039299 16.5834493,13.6620412 15.3528755,14.2142379 C14.680235,14.5744204 13.9310096,14.2382842 13.236287,14.1503497 C11.0990109,13.7264847 9.59173543,14.6474862 8.51847494,16.5410542 C7.07929322,18.7366267 7.76401731,21.8978868 9.80803454,23.4714717 C11.5369742,24.782339 13.3844122,25.9287751 15.1335062,27.2161267 C16.636775,28.3434335 17.4567822,30.2333391 17.391316,32.0985992 C17.2865597,34.2542409 16.0573041,36.4353458 14.0243193,37.3080654 C11.0804907,38.7040846 7.07044463,37.2733687 5.87739386,34.1899624 L5.81817719,34.0144792 L5.75945266,33.8312237 C5.41471873,32.722878 5.2196238,31.4629522 5.85455514,30.4320273 C6.63893322,29.2888998 8.82218927,29.6174689 8.97896234,31.0914485 L9.08661222,31.6508507 L9.13028232,31.8640296 C9.33825468,32.8397179 9.6838562,33.8575024 10.7496154,34.0994669 C12.3176942,34.7192022 14.0691028,33.1186331 13.7306259,31.5029377 C13.6267033,30.5672439 12.8131838,29.9822301 12.0922355,29.4974444 L10.6766974,28.5293849 C9.57530742,27.7757885 8.47795446,27.0142966 7.41968967,26.2004412 C4.46570406,23.8226029 3.31760544,19.4685561 4.76671761,15.9483728 C5.29885129,14.3701241 6.4658667,13.1639511 7.64315853,12.041243 C8.39535191,11.5949419 9.00490136,11.2731054 9.47202076,11.075536 L9.62649755,11.0123152 C10.0581807,10.8410171 10.6478243,10.6480429 11.3954283,10.4333925 L11.59509,10.376526 L11.8841949,10.3494275 C13.3806495,10.2169198 14.1076181,10.3853408 15.487866,11.0412249 Z M19.0496445,19.8019862 C19.7196572,19.374158 20.6096331,19.5704873 21.0374613,20.2405 C21.4652895,20.9105127 21.2689601,21.8004886 20.5989475,22.2283168 C19.6097034,22.8599862 19,23.948293 19,25.1429142 C19,25.9378696 18.3555614,26.5823082 17.5606061,26.5823082 C16.7656507,26.5823082 16.1212121,25.9378696 16.1212121,25.1429142 C16.1212121,22.9552332 17.2406193,20.9571166 19.0496445,19.8019862 Z M11.37137,0.000924618702 C13.9023381,-0.0382251689 16.2987799,1.17061232 18.233772,2.7250967 C21.2999916,5.25270529 23.1492242,9.39866631 22.3972706,13.3772869 C21.4985417,17.4686608 17.3779451,20.4978685 13.224339,20.2659619 L13.0984653,20.257934 C11.9530041,20.1931309 11.0476699,18.9574549 11.5316372,17.8637832 C11.8107301,17.0409229 12.6831348,16.6309171 13.5077019,16.6789029 C15.7993649,16.7488978 17.9749036,15.1688509 18.7424301,13.0306547 C19.2240533,11.3904655 18.8819671,9.59496535 18.0263868,8.1376126 C17.071301,6.39588265 15.4955224,5.08212211 13.7372906,4.20259615 C12.6365473,6.48769776 10.8834367,7.54499496 8.71666528,9.26127441 C7.46581123,10.2520643 5.50431428,11.196401 2.83217444,12.0942846 L2.38023852,12.243504 C1.90061529,12.39914 1.38014927,12.1733392 1.16612751,11.7167697 C0.573792802,10.4531506 0.18508363,9.57016698 -1.99160949e-13,9.06781871 C3.12675341,8.53020007 9.58334801,4.96554441 10.6897664,2.00046372 C10.9808996,1.35718458 11.0154269,0.607403179 11.37137,0.000924618702 Z" id="形状" fill="#1F8CEB" fill-rule="nonzero"></path>
                        </g>
                        <path d="M46.2408885,9.2678733 L46.2408885,17.2273961 L37.420074,17.2273961 L37.420074,9.2678733 L33.5294118,9.2678733 L33.5294118,29.8794735 L37.420074,29.8794735 L37.420074,20.4646647 L46.2408885,20.4646647 L46.2408885,29.8794735 L50.1315508,29.8794735 L50.1315508,9.2678733 L46.2408885,9.2678733 Z M53.7549157,29.8794735 L57.645578,29.8794735 L57.645578,9.2678733 L53.7549157,9.2678733 L53.7549157,29.8794735 Z M61.2392431,29.8794735 L65.1299054,29.8794735 L65.1299054,23.1970383 L67.8325792,23.1970383 C73.4458248,23.1970383 75.7624023,21.3259564 75.7624023,16.1285068 C75.7624023,11.3064615 73.928555,9.307959 68.0130874,9.26847116 L61.2392431,9.2678733 L61.2392431,29.8794735 Z M65.1299054,20.0488688 L65.1299054,12.4160428 L67.3573838,12.4160428 C70.611238,12.4160428 71.7529612,13.3419084 71.7820676,16.0789234 L71.7826409,16.1879062 C71.7826409,19.1875771 70.6837515,20.0488688 67.3573838,20.0488688 L65.1299054,20.0488688 Z M78.4056767,29.8794735 L82.296339,29.8794735 L82.296339,23.1970383 L84.9990128,23.1970383 C90.6122583,23.1970383 92.9288359,21.3259564 92.9288359,16.1285068 C92.9288359,11.3064615 91.0949885,9.307959 85.179521,9.26847116 L78.4056767,9.2678733 L78.4056767,29.8794735 Z M82.296339,20.0488688 L82.296339,12.4160428 L84.5238174,12.4160428 C87.8204854,12.4160428 88.9490745,13.3664336 88.9490745,16.1879062 L88.9470476,16.4062122 C88.8934503,19.229585 87.7680526,20.0488688 84.5238174,20.0488688 L82.296339,20.0488688 Z M95.5721102,29.8794735 L99.4627725,29.8794735 L99.4627725,9.2678733 L95.5721102,9.2678733 L95.5721102,29.8794735 Z M111.283258,30.1764706 C116.718305,30.1764706 119.658577,28.1271905 119.658577,23.1079391 L119.658577,9.2678733 L115.797614,9.2678733 L115.797614,22.5733443 L115.795998,22.7814388 C115.752543,25.5200469 114.818972,26.8204031 111.312958,26.8204031 C107.910856,26.8204031 106.883626,25.5750432 106.858477,22.6839255 L106.858001,9.2678733 L102.967339,9.2678733 L102.967339,23.1079391 C102.967339,28.4241876 105.93731,30.1764706 111.283258,30.1764706 Z M128.419992,30.1764706 C133.79564,30.1764706 136.141917,28.1271905 136.141917,24.0880296 L136.140268,23.8487697 C136.088857,20.1900871 134.820732,18.8342374 130.346598,17.6872243 L129.642992,17.5106333 C126.789977,16.7794505 126.325052,16.2831805 126.311619,14.8300704 L126.311312,14.76232 C126.311312,12.7130399 127.439901,12.2081448 129.934677,12.2081448 C131.71666,12.2081448 134.003538,12.5942411 135.072727,12.9803373 L135.072727,9.68366927 C134.003538,9.29757302 132.043357,8.94117647 129.815878,8.94117647 C125.034225,8.94117647 122.509749,10.6637598 122.509749,14.8514192 C122.509749,18.474784 123.875936,19.6924722 128.212094,20.7022624 L128.491826,20.7743085 C131.635803,21.5947797 132.280954,22.1525287 132.280954,24.0286302 C132.280954,26.1373097 131.152365,26.8204031 128.301193,26.8204031 C126.133114,26.8204031 123.608638,26.4343069 122.361251,25.9591115 L122.361251,29.4339778 C123.519539,29.820074 125.984615,30.1764706 128.419992,30.1764706 Z" id="HIPPIUS·CONSOLE" fill="#1F8CEB" fill-rule="nonzero"></path>
                    </g>
                </g>
            </g>
        </g>
    </g>
</svg>