<?xml version="1.0" encoding="UTF-8"?>
<svg width="68px" height="68px" viewBox="0 0 68 68" version="1.1" xmlns="http://www.w3.org/2000/svg" xmlns:xlink="http://www.w3.org/1999/xlink">
    <!-- Generator: Sketch 57.1 (83088) - https://sketch.com -->
    <title>caseapp/hzero</title>
    <desc>Created with Sketch.</desc>
    <defs>
        <rect id="path-1" x="0" y="0" width="68" height="68"></rect>
        <polygon id="path-3" points="0 0.0281733291 17.4870269 0.0281733291 17.4870269 31.4509214 0 31.4509214"></polygon>
        <polygon id="path-5" points="0.0157736463 0 17.5033115 0 17.5033115 31.4233627 0.0157736463 31.4233627"></polygon>
        <polygon id="path-7" points="0.0544761558 0.0372586266 11.6345678 0.0372586266 11.6345678 20.3973834 0.0544761558 20.3973834"></polygon>
    </defs>
    <g id="页面-1" stroke="none" stroke-width="1" fill="none" fill-rule="evenodd">
        <g id="画板" transform="translate(-279.000000, -568.000000)">
            <g id="caseapp/hzero" transform="translate(279.000000, 568.000000)">
                <mask id="mask-2" fill="white">
                    <use xlink:href="#path-1"></use>
                </mask>
                <use id="矩形" fill-opacity="0.01" fill="#FFFFFF" xlink:href="#path-1"></use>
                <g id="编组-13" mask="url(#mask-2)">
                    <g transform="translate(6.000000, 12.000000)">
                        <g id="编组" stroke-width="1" fill="none" fill-rule="evenodd" transform="translate(0.000000, 12.648159)">
                            <g id="Fill-1-Clipped">
                                <mask id="mask-4" fill="white">
                                    <use xlink:href="#path-3"></use>
                                </mask>
                                <g id="path-1"></g>
                                <path d="M0.574199703,24.104835 L5.37747174,31.4509214 L16.9982797,11.75943 C17.6493036,10.6561008 17.6499271,9.2869821 17.0002393,8.18285125 L12.1995503,0.0281733291 L0.468828068,20.422261 C-0.192171855,21.5719966 -0.151733373,22.9947363 0.574199703,24.104835" id="Fill-1" fill="#1759CC" fill-rule="nonzero" mask="url(#mask-4)"></path>
                            </g>
                        </g>
                        <g id="编组" stroke-width="1" fill="none" fill-rule="evenodd" transform="translate(36.252118, -0.000000)">
                            <g id="Fill-3-Clipped">
                                <mask id="mask-6" fill="white">
                                    <use xlink:href="#path-5"></use>
                                </mask>
                                <g id="path-3"></g>
                                <path d="M0.589983181,24.0767418 L5.39263172,31.4233627 L17.0140632,11.7313368 C17.6657106,10.6285421 17.6664232,9.25888893 17.0160227,8.15475809 L12.2154228,-8.90715432e-06 L0.484700617,20.3940788 C-0.176388377,21.5439033 -0.135949897,22.9672666 0.589983181,24.0767418" id="Fill-3" fill="#1759CC" fill-rule="nonzero" mask="url(#mask-6)"></path>
                            </g>
                        </g>
                        <path d="M20.5717142,20.3605255 C20.037285,20.0606217 19.5823966,19.6221225 19.2613828,19.0781626 L14.9257363,11.7315417 C14.2746233,10.6286578 14.2739108,9.25900473 14.9236876,8.15487389 L19.7243766,0.000195957395 L26.0169249,10.9398738" id="Fill-5" fill="#1759CC" fill-rule="nonzero"></path>
                        <path d="M26.0172188,10.9401678 L26.0170407,10.9398115 C22.3877316,17.2286188 20.573077,20.3680343 20.573077,20.3580583 C20.5876847,20.3655403 20.6314188,20.3938651 20.6457594,20.4017034 C21.0700072,20.6310625 21.5393251,20.7612852 22.0664505,20.8050193 L30.6196345,21.0611 C31.0056706,21.0749952 31.3851153,21.0253823 31.7447863,20.9174277 L26.0170407,10.9401678 L26.0172188,10.9401678 Z" id="Fill-7" fill="#7BB1FF" fill-rule="nonzero"></path>
                        <path d="M26.0172188,10.9401678 C26.0172188,10.9401678 31.7447863,20.9174277 31.7447863,20.9174277 L31.7448753,20.9176948 C32.5768035,20.6706104 33.3020241,20.1208608 33.7617223,19.3545783 L38.6312635,11.2408733 L26.0172188,10.9401678 Z" id="Fill-9" fill="#7BB1FF" fill-rule="nonzero"></path>
                        <g id="编组" stroke-width="1" fill="none" fill-rule="evenodd" transform="translate(27.701250, 24.138388)">
                            <g id="Fill-11-Clipped">
                                <mask id="mask-8" fill="white">
                                    <use xlink:href="#path-7"></use>
                                </mask>
                                <g id="path-5"></g>
                                <path d="M5.50057753,0.0372586266 C6.03402699,0.336539012 6.4882028,0.774236575 6.80877128,1.31739485 L11.1457538,8.66606438 C11.7968668,9.76948266 11.7974903,11.1386013 11.1477134,12.2426431 L6.34711347,20.3974101 L0.0544761558,9.45746504" id="Fill-11" fill="#1759CC" fill-rule="nonzero" mask="url(#mask-8)"></path>
                            </g>
                        </g>
                        <path d="M21.8638216,23.6711368 L27.7559933,33.5956662 L15.1410578,33.2956732 L20.0105991,25.1819683 C20.4404583,24.4660111 21.1014583,23.9387076 21.8638216,23.6711368 M27.755637,33.5959334 L21.8635545,23.6714039 C22.2708786,23.5282659 22.7073292,23.4587902 23.1531322,23.4747339 L31.7099682,23.7303693 C32.2468914,23.762346 32.7320641,23.922942 33.2019165,24.1753708 C33.2019165,24.1753708 31.3865495,27.3154989 27.755637,33.5959334" id="Fill-13" fill="#7BB1FF" fill-rule="nonzero"></path>
                    </g>
                </g>
            </g>
        </g>
    </g>
</svg>