<?xml version="1.0" encoding="UTF-8"?>
<svg width="160px" height="40px" viewBox="0 0 160 40" version="1.1" xmlns="http://www.w3.org/2000/svg" xmlns:xlink="http://www.w3.org/1999/xlink">
    <!-- Generator: Sketch 57.1 (83088) - https://sketch.com -->
    <title>logo/hzero</title>
    <desc>Created with Sketch.</desc>
    <defs>
        <rect id="path-1" x="0" y="0" width="160" height="40"></rect>
        <polygon id="path-3" points="0 0.0237908112 14.7668227 0.0237908112 14.7668227 26.5585558 0 26.5585558"></polygon>
        <polygon id="path-5" points="0.013319968 0 14.7805741 0 14.7805741 26.5352841 0.013319968 26.5352841"></polygon>
        <polygon id="path-7" points="0.0460020872 0.0314628402 9.82474615 0.0314628402 9.82474615 17.2244571 0.0460020872 17.2244571"></polygon>
        <polygon id="path-9" points="0.0149153268 0.0741027735 20.9330557 0.0741027735 20.9330557 27.9649365 0.0149153268 27.9649365"></polygon>
    </defs>
    <g id="页面-1" stroke="none" stroke-width="1" fill="none" fill-rule="evenodd">
        <g id="画板" transform="translate(-753.000000, -98.000000)">
            <g id="logo/hzero" transform="translate(753.000000, 98.000000)">
                <mask id="mask-2" fill="white">
                    <use xlink:href="#path-1"></use>
                </mask>
                <use id="矩形" fill-opacity="0.01" fill="#FFFFFF" xlink:href="#path-1"></use>
                <g id="hzero-logo" mask="url(#mask-2)">
                    <g transform="translate(-0.000000, 0.000000)">
                        <g id="编组-13" stroke-width="1" fill="none" fill-rule="evenodd">
                            <g id="编组" transform="translate(0.000000, 10.680668)">
                                <g id="Fill-1-Clipped">
                                    <mask id="mask-4" fill="white">
                                        <use xlink:href="#path-3"></use>
                                    </mask>
                                    <g id="path-1"></g>
                                    <path d="M0.48487975,20.355194 L4.54097614,26.5585558 L14.3541029,9.93018533 C14.9038564,8.99848512 14.9043829,7.84234044 14.3557576,6.90996328 L10.3018425,0.0237908112 L0.395899257,17.2454649 C-0.162278455,18.2163527 -0.128130404,19.4177774 0.48487975,20.355194" id="Fill-1" fill="#1759CC" fill-rule="nonzero" mask="url(#mask-4)"></path>
                                </g>
                            </g>
                            <g id="编组" transform="translate(30.612899, -0.000000)">
                                <g id="Fill-3-Clipped">
                                    <mask id="mask-6" fill="white">
                                        <use xlink:href="#path-5"></use>
                                    </mask>
                                    <g id="path-3"></g>
                                    <path d="M0.49820802,20.3314709 L4.5537779,26.5352841 L14.3674311,9.90646223 C14.9177112,8.9752133 14.9183129,7.81861732 14.3690859,6.88624016 L10.315246,-7.52159698e-06 L0.409302743,17.2216665 C-0.148950185,18.1926295 -0.114802135,19.3945807 0.49820802,20.3314709" id="Fill-3" fill="#1759CC" fill-rule="nonzero" mask="url(#mask-6)"></path>
                                </g>
                            </g>
                            <path d="M17.3716698,17.1933327 C16.920374,16.9400805 16.536246,16.5697923 16.2651677,16.1104484 L12.6039551,9.90663517 C12.0541263,8.97531107 12.0535247,7.81871511 12.6022251,6.88633795 L16.6561402,0.000165475133 L21.9698477,9.23811567" id="Fill-5" fill="#1759CC" fill-rule="nonzero"></path>
                            <path d="M21.9700959,9.23836389 L21.9699454,9.23806303 C18.9051956,14.5486114 17.3728206,17.1996734 17.3728206,17.1912492 C17.385156,17.1975673 17.422087,17.2214861 17.4341968,17.2281051 C17.7924505,17.4217861 18.1887634,17.5317519 18.6338915,17.5686829 L25.8565803,17.7849289 C26.1825663,17.7966626 26.5029863,17.7547673 26.8067084,17.6636056 L21.9699454,9.23836389 L21.9700959,9.23836389 Z" id="Fill-7" fill="#7BB1FF" fill-rule="nonzero"></path>
                            <path d="M21.9700959,9.23836389 C21.9700959,9.23836389 26.8067084,17.6636056 26.8067084,17.6636056 L26.8067836,17.6638311 C27.5093007,17.4551821 28.1217092,16.9909492 28.5098988,16.3438662 L32.6219559,9.49229301 L21.9700959,9.23836389 Z" id="Fill-9" fill="#7BB1FF" fill-rule="nonzero"></path>
                            <g id="编组" transform="translate(23.392167, 20.383527)">
                                <g id="Fill-11-Clipped">
                                    <mask id="mask-8" fill="white">
                                        <use xlink:href="#path-7"></use>
                                    </mask>
                                    <g id="path-5"></g>
                                    <path d="M4.64493213,0.0314628402 C5.09540057,0.284188499 5.47892681,0.653799775 5.74962908,1.11246676 L9.41196986,7.31800992 C9.96179861,8.24978536 9.96232515,9.40593003 9.41362462,10.338232 L5.3597847,17.2244796 L0.0460020872,7.98630381" id="Fill-11" fill="#1759CC" fill-rule="nonzero" mask="url(#mask-8)"></path>
                                </g>
                            </g>
                            <path d="M18.4627827,19.9889599 L23.4383943,28.3696736 L12.7857821,28.1163463 L16.8978392,21.2647732 C17.2608315,20.6601872 17.8190092,20.2149086 18.4627827,19.9889599 M23.4380935,28.3698993 L18.4625571,19.9891855 C18.8065197,19.8683134 19.175078,19.8096451 19.5515339,19.8231086 L26.7773064,20.0389786 C27.2307083,20.0659811 27.6404097,20.2015955 28.0371739,20.4147575 C28.0371739,20.4147575 26.5041973,23.0664213 23.4380935,28.3698993" id="Fill-13" fill="#7BB1FF" fill-rule="nonzero"></path>
                        </g>
                        <g id="编组" stroke-width="1" fill="none" fill-rule="evenodd" transform="translate(138.171737, 8.499404)">
                            <g id="Fill-15-Clipped">
                                <mask id="mask-10" fill="white">
                                    <use xlink:href="#path-9"></use>
                                </mask>
                                <g id="path-7"></g>
                                <path d="M10.1210083,27.9649365 C3.8641678,27.9649365 0.0149153268,24.8103788 0.0149153268,13.7607767 C0.0149153268,2.71124989 4.17526105,0.0741027735 10.4321015,0.0741027735 C16.7822098,0.0741027735 20.9330782,2.71124989 20.9330782,13.7607767 C20.9330782,24.8103788 16.4711917,27.9649365 10.1210083,27.9649365 M10.4587279,23.5277961 C14.3720645,23.5277961 15.2280974,20.5357048 15.2280974,13.7620553 C15.2280974,7.06753321 14.3720645,3.87739829 10.4587279,3.87739829 C6.57592916,3.87739829 5.71982099,7.06753321 5.71982099,13.7620553 C5.71982099,20.5357048 6.57592916,23.5277961 10.4587279,23.5277961" id="Fill-15" fill="#3C4349" fill-rule="nonzero" mask="url(#mask-10)"></path>
                            </g>
                        </g>
                        <polygon id="Fill-17" fill="#3C4349" fill-rule="nonzero" points="51.9785074 36.4643412 51.9785074 8.57350737 57.4297097 8.57350737 57.4297097 20.5211129 64.1635697 20.5211129 64.1635697 8.57350737 69.6147719 8.57350737 69.6147719 36.4643412 64.1635697 36.4643412 64.1635697 24.0466358 57.4297097 24.0466358 57.4297097 36.4643412"></polygon>
                        <polygon id="Fill-19" fill="#3C4349" fill-rule="nonzero" points="74.1810282 36.4643412 74.1810282 32.9388182 84.4421412 12.3340802 74.7154377 12.3340802 74.7154377 8.57350737 90.3743495 8.57350737 90.3743495 11.7464931 79.8994727 32.7038435 90.3743495 32.7038435 90.3743495 36.4643412"></polygon>
                        <polygon id="Fill-21" fill="#3C4349" fill-rule="nonzero" points="94.9406058 36.4643412 94.9406058 8.57350737 111.187331 8.57350737 111.187331 12.3340802 100.391808 12.3340802 100.391808 20.5211129 109.79779 20.5211129 109.79779 24.2816858 100.391808 24.2816858 100.391808 32.4687936 111.187331 32.4687936 111.187331 36.4643412"></polygon>
                        <path d="M116.000709,36.4643412 L116.000709,8.57350737 L124.805791,8.57350737 C131.24864,8.57350737 134.469915,11.3024932 134.469915,16.7606153 C134.469915,18.4058142 134.120988,19.8029508 133.423059,20.9520252 C132.725054,22.1010995 131.49911,23.0281364 129.745299,23.733286 L135.651106,36.4643412 L129.852632,36.4643412 L124.752162,24.5559232 L121.477033,24.5559232 L121.477033,36.4643412 L116.000709,36.4643412 Z M121.07177,12.3768029 L121.07177,21.2511591 L124.223093,21.2511591 C125.201051,21.2511591 125.979912,21.1511971 126.559376,20.9513482 C127.138915,20.7514994 127.59179,20.4650017 127.917702,20.0919306 C128.207508,19.7187841 128.406681,19.2591393 128.515443,18.7127706 C128.624054,18.1664769 128.678435,17.5335346 128.678435,16.8140186 C128.678435,16.0944274 128.624054,15.4615602 128.515443,14.9151915 C128.406681,14.3688978 128.189456,13.8958647 127.863396,13.4960917 C127.175169,12.7498741 125.871225,12.3768029 123.951488,12.3768029 L121.07177,12.3768029 Z" id="Fill-23" fill="#3C4349" fill-rule="nonzero"></path>
                    </g>
                </g>
            </g>
        </g>
    </g>
</svg>