<?xml version="1.0" encoding="UTF-8"?>
<svg width="68px" height="68px" viewBox="0 0 68 68" version="1.1" xmlns="http://www.w3.org/2000/svg" xmlns:xlink="http://www.w3.org/1999/xlink">
    <!-- Generator: Sketch 57.1 (83088) - https://sketch.com -->
    <title>caseapp/srm</title>
    <desc>Created with Sketch.</desc>
    <defs>
        <rect id="path-1" x="0" y="0" width="68" height="68"></rect>
        <polygon id="path-3" points="0 0.102042553 0 43.6879433 17.5375887 35.1769078 17.5375887 26.4084255 8.76879433 30.7925106 8.76879433 13.255234 26.3060709 22.0240284 35.3326241 17.3818723"></polygon>
        <linearGradient x1="0%" y1="50.0000641%" x2="100.000787%" y2="50.0000641%" id="linearGradient-5">
            <stop stop-color="#FF8E00" offset="0%"></stop>
            <stop stop-color="#FFCC33" offset="100%"></stop>
        </linearGradient>
        <polygon id="path-6" points="35.1375887 0.102042553 17.8574468 8.61307801 17.8574468 17.3818723 26.3684823 13.255234 26.6265532 30.7925106 8.83089362 22.0240284 0.0624113475 26.4084255 35.1375887 43.6879433"></polygon>
        <linearGradient x1="-0.000253825623%" y1="50.0000641%" x2="99.9992384%" y2="50.0000641%" id="linearGradient-8">
            <stop stop-color="#2FAAC6" offset="0%"></stop>
            <stop stop-color="#3AD6E8" offset="100%"></stop>
        </linearGradient>
    </defs>
    <g id="页面-1" stroke="none" stroke-width="1" fill="none" fill-rule="evenodd">
        <g id="画板" transform="translate(-525.000000, -564.000000)">
            <g id="caseapp/srm" transform="translate(525.000000, 564.000000)">
                <mask id="mask-2" fill="white">
                    <use xlink:href="#path-1"></use>
                </mask>
                <use id="矩形" fill-opacity="0.01" fill="#FFFFFF" xlink:href="#path-1"></use>
                <g id="编组-22" mask="url(#mask-2)">
                    <g transform="translate(7.000000, 12.000000)" id="编组">
                        <g transform="translate(-0.000000, 0.000000)">
                            <mask id="mask-4" fill="white">
                                <use xlink:href="#path-3"></use>
                            </mask>
                            <g id="Clip-26"></g>
                            <polygon id="Fill-25" fill="url(#linearGradient-5)" mask="url(#mask-4)" points="0 0.102042553 0 43.6879433 17.5375887 35.1769078 17.5375887 26.4084255 8.76879433 30.7925106 8.76879433 13.255234 26.3060709 22.0240284 35.3326241 17.3818723"></polygon>
                        </g>
                        <g transform="translate(17.475177, 0.000000)">
                            <mask id="mask-7" fill="white">
                                <use xlink:href="#path-6"></use>
                            </mask>
                            <g id="Clip-28"></g>
                            <polygon id="Fill-27" fill="url(#linearGradient-8)" mask="url(#mask-7)" points="35.1375887 0.102042553 17.8574468 8.61307801 17.8574468 17.3818723 26.3684823 13.255234 26.6265532 30.7925106 8.83089362 22.0240284 0.0624113475 26.4084255 35.1375887 43.6879433"></polygon>
                        </g>
                    </g>
                </g>
            </g>
        </g>
    </g>
</svg>