<?xml version="1.0" encoding="UTF-8"?>
<svg width="160px" height="40px" viewBox="0 0 160 40" version="1.1" xmlns="http://www.w3.org/2000/svg" xmlns:xlink="http://www.w3.org/1999/xlink">
    <!-- Generator: Sketch 57.1 (83088) - https://sketch.com -->
    <title>logo/yinuo</title>
    <desc>Created with Sketch.</desc>
    <defs>
        <rect id="path-1" x="0" y="0" width="160" height="40"></rect>
        <linearGradient x1="23.811%" y1="8.107%" x2="100%" y2="52.821%" id="linearGradient-3">
            <stop stop-color="#4786FE" offset="0%"></stop>
            <stop stop-color="#32E3CB" offset="100%"></stop>
        </linearGradient>
        <linearGradient x1="100%" y1="35.579%" x2="24.33%" y2="93.918%" id="linearGradient-4">
            <stop stop-color="#8DFFCA" offset="0%"></stop>
            <stop stop-color="#74D7FF" offset="100%"></stop>
        </linearGradient>
        <linearGradient x1="27.52%" y1="6.34%" x2="73.048%" y2="96.85%" id="linearGradient-5">
            <stop stop-color="#1E55F3" offset="0%"></stop>
            <stop stop-color="#15BBEC" offset="100%"></stop>
        </linearGradient>
    </defs>
    <g id="页面-1" stroke="none" stroke-width="1" fill="none" fill-rule="evenodd">
        <g id="画板" transform="translate(-955.000000, -105.000000)">
            <g id="logo/yinuo" transform="translate(955.000000, 105.000000)">
                <mask id="mask-2" fill="white">
                    <use xlink:href="#path-1"></use>
                </mask>
                <use id="矩形" fill-opacity="0.01" fill="#FFFFFF" xlink:href="#path-1"></use>
                <g id="onecontract-logo" mask="url(#mask-2)" fill-rule="nonzero">
                    <g transform="translate(4.000000, 0.000000)">
                        <path d="M25.580934,10.1063772 L25.5776335,10.1061938 C26.1295498,10.6009014 26.630675,11.1511674 27.0714745,11.7487404 C27.0782589,11.7579085 27.0846765,11.7676266 27.0912775,11.7766113 C27.1910258,11.912665 27.2878403,12.0507358 27.3811709,12.1915569 C27.4006073,12.2205279 27.4185766,12.2504157 27.4378294,12.2797535 C27.5170414,12.4015051 27.5942363,12.5243569 27.6686809,12.6492256 C27.6934344,12.6912152 27.7170881,12.7335716 27.7412916,12.775928 C27.8074849,12.8903451 27.8718446,13.0054958 27.9336374,13.1222966 C27.9605914,13.1729043 27.9858951,13.2240619 28.0119324,13.2750363 C28.0680409,13.3856028 28.1226823,13.4965361 28.1751235,13.6091198 C28.2018941,13.666695 28.2279315,13.7244536 28.2536019,13.7827625 C28.3016425,13.8909454 28.3482161,13.9996784 28.3927728,14.1098783 C28.4182599,14.172771 28.4430136,14.2358471 28.4674006,14.29929 C28.5086569,14.4065561 28.5478961,14.5145556 28.5856684,14.6232886 C28.6089554,14.690582 28.6320589,14.7580589 28.6542455,14.8259024 C28.6889006,14.9331685 28.7215388,15.041168 28.7530769,15.149901 C28.7736134,15.220495 28.7941498,15.2909055 28.8134026,15.3622329 C28.8423736,15.4702325 28.8685943,15.5793321 28.8942649,15.6884319 C28.9115008,15.7617763 28.9292868,15.8343871 28.9450558,15.9082815 C28.9685259,16.0184814 28.9886958,16.1299649 29.0086819,16.2412649 C29.0222508,16.3149759 29.0365528,16.3885036 29.0482879,16.4627648 C29.0668073,16.5782821 29.0812929,16.6948996 29.0959618,16.8113338 C29.1049465,16.8828445 29.1155814,16.9539885 29.1230993,17.025866 C29.1366679,17.1540352 29.1456525,17.2833046 29.1546371,17.412574 C29.1590379,17.4741832 29.1654555,17.5352425 29.168756,17.597035 C29.1788409,17.7884638 29.1843416,17.9813595 29.1843416,18.1755386 C29.1843416,18.3748519 29.1781075,18.5726981 29.1676558,18.7692611 C29.1639886,18.8338041 29.157571,18.8974303 29.1528035,18.96179 C29.1434523,19.093443 29.1333674,19.2249129 29.1192485,19.3552824 C29.1111806,19.4306438 29.1003624,19.5050881 29.0908276,19.579716 C29.0754254,19.6983505 29.0594729,19.8164349 29.0402201,19.9336025 C29.0275681,20.0113474 29.013266,20.0881758 28.9989639,20.1651873 C28.977694,20.278871 28.9553239,20.391638 28.930937,20.5036714 C28.9140679,20.5804996 28.8962818,20.6569611 28.8777624,20.7332393 C28.8508083,20.8450894 28.8218373,20.9560226 28.7912159,21.066406 C28.7708629,21.140117 28.7505099,21.2134613 28.72869,21.2866223 C28.6945848,21.400306 28.6579126,21.5128896 28.6201403,21.624923 C28.597587,21.6922165 28.5759504,21.7596934 28.5521134,21.8262534 C28.5082903,21.9489218 28.4607998,22.06994 28.4125758,22.1905913 C28.3911225,22.2443161 28.3713196,22.2989576 28.3489496,22.3523156 C28.2781723,22.5213744 28.2037278,22.6885995 28.1246991,22.8534409 C28.1228658,22.8569248 28.1213986,22.8607753 28.1197486,22.8642592 C28.0374195,23.0353349 27.9505065,23.2034768 27.8597429,23.369235 C27.8377394,23.4095742 27.8137193,23.4486303 27.7911658,23.4886029 C27.7220389,23.611088 27.6516281,23.7330229 27.5779171,23.8527575 C27.5452789,23.9057488 27.5106236,23.9572731 27.477252,24.0097144 C27.410142,24.1145969 27.3419318,24.2189291 27.2713378,24.3210613 C27.2331988,24.3764361 27.1937761,24.4308944 27.154537,24.4853525 C27.084493,24.5829004 27.0133491,24.6793484 26.9403715,24.7743293 C26.8987486,24.8284208 26.8563921,24.8821454 26.8138524,24.9355034 C26.7388579,25.0290174 26.6623964,25.121248 26.5846514,25.212195 C26.5411949,25.262986 26.4977384,25.3137769 26.453365,25.3638344 C26.3710359,25.4564316 26.2866899,25.5471953 26.2012439,25.6368588 C26.1585208,25.6815987 26.1167145,25.7268889 26.0736246,25.7710789 C25.9779103,25.86826 25.8796289,25.9628743 25.7804306,26.056205 C25.7448586,26.0899434 25.7102035,26.1244153 25.6740814,26.1577869 C25.6656468,26.1654881 25.6575789,26.1737394 25.6491443,26.1814404 C31.9637256,20.6074536 33.4280455,11.423825 29.5461128,4.23864629 C28.7822313,3.62438741 27.967009,3.07192113 27.1075965,2.58821518 C27.1020958,2.58509806 27.0967783,2.58216428 27.091094,2.57886379 C26.4559321,2.22241026 25.7967498,1.90372909 25.1166644,1.62520395 C25.0994285,1.61823624 25.0820091,1.61108516 25.0649566,1.60411745 C24.8469406,1.51573751 24.6270909,1.43139152 24.4050409,1.35144618 C24.3905553,1.34631208 24.3760699,1.34136134 24.3615844,1.33622723 C23.9138171,1.17633656 23.4577986,1.03404853 22.9946291,0.90991323 C22.9695088,0.903312239 22.9445716,0.896344526 22.9194513,0.889560174 C22.6994181,0.831618143 22.4775515,0.777893411 22.2540345,0.728202618 C22.2208464,0.720684823 22.1874745,0.713533749 22.1542863,0.706382674 C21.9287524,0.657608686 21.7021184,0.612318554 21.4736508,0.571979164 C21.4558648,0.56886203 21.4378955,0.566294979 21.4202928,0.563177844 C21.1962258,0.52430534 20.9708753,0.49001686 20.7442413,0.459762318 C20.7215046,0.456645183 20.6991345,0.453161326 20.6763979,0.450227553 C20.4497638,0.420706454 20.2214794,0.396502821 19.9922784,0.375599683 C19.9502888,0.371749105 19.908299,0.367898527 19.8664928,0.36441467 C19.6407756,0.345528502 19.4137749,0.330492911 19.1858574,0.320041342 C19.1477183,0.318207733 19.1093959,0.317107568 19.0712568,0.315640681 C18.8327043,0.306289278 18.5936018,0.300055008 18.3526656,0.300055008 C18.1636204,0.300055008 17.9753089,0.303905586 17.7877308,0.309773134 C17.7336393,0.311423382 17.6797313,0.313807073 17.6258231,0.315824042 C17.4822515,0.32169159 17.3390468,0.329209385 17.1962086,0.338377428 C17.1474346,0.341311202 17.0982939,0.344061615 17.0497033,0.347545471 C16.8646921,0.360930814 16.6805979,0.376699848 16.497237,0.395402656 C16.4678993,0.39851979 16.4387449,0.402370369 16.4090404,0.405487503 C16.2530004,0.422540063 16.0975104,0.441426231 15.9425704,0.462146009 C15.8893958,0.469297083 15.8360378,0.476814878 15.7828631,0.484516035 C15.6356244,0.505785894 15.4887523,0.528889361 15.3426136,0.553459718 C15.3057581,0.559877346 15.2687193,0.565561534 15.2320471,0.571979164 C15.0518034,0.603700593 14.8726598,0.638172434 14.6942496,0.67521133 C14.6548271,0.683462568 14.6157713,0.692447249 14.5763486,0.700881849 C14.4336939,0.731686474 14.2917726,0.763957986 14.150218,0.798063106 C14.101444,0.8097982 14.0523033,0.821533295 14.0035294,0.833818473 C13.8407049,0.874524584 13.6784305,0.917247664 13.5172563,0.962354436 C13.5040544,0.966021654 13.4904856,0.969322149 13.477467,0.972989366 C13.3012573,1.02286352 13.1266976,1.07585481 12.9528716,1.13086307 C12.911432,1.14388169 12.8705426,1.15763375 12.8292864,1.1710191 C12.6908489,1.21594251 12.5531449,1.26251617 12.4161743,1.31055671 C12.3760183,1.3246755 12.3358623,1.33879428 12.2958896,1.35309643 C11.9526381,1.47686501 11.6141539,1.61053508 11.2811706,1.75410663 C11.2426648,1.77079248 11.2043424,1.78784503 11.1658366,1.80471423 C11.0253822,1.86650684 10.8858446,1.92976634 10.7475905,1.9950428 C10.7204531,2.0076947 10.6933157,2.01997988 10.6661783,2.0329985 C10.4993199,2.11257711 10.3337451,2.19453941 10.1696371,2.27906878 C10.1549682,2.28676993 10.1406661,2.29447108 10.1261806,2.30198889 C9.97875843,2.37845036 9.83261981,2.45729553 9.68776474,2.5379743 C9.65549323,2.55576031 9.62358844,2.57372968 9.59131693,2.59188241 C9.4405943,2.67659511 9.29060513,2.76350816 9.14263289,2.85262154 C9.13621528,2.85647211 9.129981,2.85995599 9.12374674,2.86380656 C8.96293925,2.96080446 8.80378204,3.06073613 8.64645841,3.16286813 C8.62757224,3.17496995 8.6090528,3.18743848 8.59053335,3.1995403 C8.4530127,3.28938711 8.31695895,3.38106755 8.18200535,3.47458159 C8.1583518,3.4909007 8.13488161,3.50721983 8.11122806,3.5237223 C7.80703239,3.73678763 7.50980444,3.95883761 7.22009429,4.18968894 C7.20230828,4.20399109 7.18452228,4.21847659 7.16655291,4.23277875 C7.03379964,4.33949476 6.90214655,4.44822775 6.77232705,4.558611 C6.7594918,4.569796 6.74628981,4.58043093 6.73345455,4.59161595 C6.4479617,4.83603598 6.17053671,5.08944069 5.90099624,5.35091326 L5.85643956,5.39455315 C5.45139541,5.79061261 5.06468736,6.20592495 4.69851573,6.63883995 C4.68824751,6.65112513 4.67779594,6.6634103 4.66734438,6.67569548 C4.42164083,6.96797269 4.18473859,7.26813443 3.9575545,7.57581395 C3.954254,7.58039796 3.9509535,7.58498199 3.947653,7.58956601 C3.83690304,7.73992193 3.72872014,7.89192806 3.62292091,8.04558448 C3.61760345,8.05328563 3.61210263,8.06080344 3.60696853,8.06850459 C3.3896859,8.38498543 3.18230478,8.70880071 2.98519185,9.03976706 C2.97932429,9.04911848 2.97364011,9.05883659 2.96795593,9.06855471 C2.87095803,9.2321126 2.77616048,9.39732074 2.68429668,9.56399575 C16.2825215,-1.82032997 25.580934,10.1063772 25.580934,10.1063772" id="Path" fill="url(#linearGradient-3)"></path>
                        <path d="M29.546461,4.2393614 C33.4278438,11.4243567 31.9635239,20.6076186 25.6491259,26.1814221 C25.6163043,26.2113099 25.5823826,26.239731 25.5490109,26.2694353 C25.4710825,26.3370955 25.396088,26.406956 25.3168761,26.4735159 C25.2967064,26.4903853 25.2763534,26.5063375 25.2563669,26.5230234 L25.2576505,26.5215565 C25.1991584,26.5703305 25.1384659,26.616354 25.0788738,26.6638445 C25.1259974,26.626439 25.174038,26.5903169 25.2204283,26.5521778 C18.6278718,32.0119308 9.17598625,31.926118 2.68922908,26.800265 C5.73301936,32.3175933 11.6058844,36.0554045 18.3526473,36.0554045 C28.2262629,36.0554045 36.2303311,28.0511528 36.2303311,18.1777205 C36.2303311,12.5415744 33.6216563,7.51583661 29.546461,4.2393614" id="Path" fill="url(#linearGradient-4)"></path>
                        <path d="M25.220465,26.5522694 C25.1740746,26.5904085 25.1258508,26.6263473 25.0789103,26.6637528 C25.0123504,26.7165608 24.9467073,26.7699189 24.879047,26.8210764 C24.8262391,26.8610493 24.7717809,26.8990048 24.7182395,26.9380608 C24.6489291,26.9883016 24.5803521,27.0394593 24.5097583,27.0884165 C24.4554835,27.1260056 24.3995584,27.1613941 24.3447335,27.1980665 C24.2730393,27.2457404 24.2020788,27.2941474 24.1294678,27.3399878 C24.0733594,27.3753763 24.0159675,27.4087481 23.9589421,27.44322 C23.8855979,27.4879599 23.8126203,27.5332501 23.7379924,27.5761564 C23.6806004,27.6091614 23.6217416,27.6399661 23.5636163,27.6716875 C23.4880715,27.7134938 23.4128935,27.7558501 23.3360654,27.7958229 C23.2768398,27.8266275 23.2163306,27.8548651 23.156555,27.8847529 C23.0791769,27.9230753 23.0023485,27.9621311 22.924237,27.9988033 C22.8626276,28.027591 22.7997348,28.0538116 22.7375755,28.081499 C22.6594638,28.1159709 22.5819021,28.1517261 22.5028735,28.1845478 C22.4379639,28.211502 22.3721374,28.2358889 22.3064941,28.2613761 C22.2287491,28.2919972 22.1511874,28.323902 22.072159,28.3526898 C22.0048655,28.3774435 21.9361053,28.3992635 21.8680784,28.4227336 C21.7896,28.4496876 21.7118548,28.4777419 21.6328264,28.5030456 C21.5631493,28.525049 21.4923719,28.5443019 21.4221448,28.5650216 C21.3431161,28.5883085 21.2648211,28.6128789 21.1850591,28.6345155 C21.1122649,28.6543183 21.038187,28.6710043 20.9648428,28.689157 C20.8863643,28.7085931 20.8086193,28.729313 20.7295906,28.7470989 C20.6522125,28.7643349 20.5737341,28.7788205 20.4958058,28.7944061 C20.4195276,28.8098084 20.3436161,28.8264941 20.2667879,28.8404296 C20.1839088,28.8550986 20.0999295,28.8666501 20.0165003,28.8794855 C19.9433393,28.8908539 19.870545,28.9036891 19.7970174,28.9135906 C19.706437,28.9256924 19.6147566,28.9343104 19.523443,28.9440285 C19.4559663,28.951363 19.3886728,28.960531 19.3206459,28.966582 C19.2155801,28.9759333 19.1094143,28.9814341 19.0034316,28.9876685 C18.9482399,28.990969 18.8935985,28.9962864 18.8382234,28.99867 C18.6766825,29.0058213 18.5138581,29.0094884 18.3503003,29.0094884 C12.3668686,29.0094884 7.5162404,24.1588603 7.5162404,18.1754285 C7.5162404,17.975015 7.52247466,17.7760686 7.53329295,17.5782223 C7.53696019,17.514046 7.5433778,17.4507864 7.54796184,17.3869769 C7.55749659,17.2534901 7.56794818,17.1203701 7.58243368,16.988167 C7.59050156,16.9139059 7.60076975,16.8403781 7.61048789,16.7666671 C7.62625691,16.6458323 7.64294276,16.5249975 7.66256238,16.4054461 C7.67503091,16.3297181 7.68896634,16.2543569 7.70308511,16.1791789 C7.72490506,16.0616445 7.74837525,15.9448438 7.77404578,15.8289596 C7.79018153,15.7556153 7.80686738,15.6826376 7.82465338,15.60966 C7.85344101,15.4910255 7.88479574,15.3731245 7.91761734,15.255957 C7.93632013,15.1886635 7.95465623,15.1215534 7.97445919,15.0549934 C8.01259825,14.9279244 8.05422116,14.8025055 8.0967609,14.6776368 C8.11546369,14.6228119 8.13288298,14.5678036 8.15231923,14.5135288 C8.20971118,14.3540049 8.27095371,14.1964979 8.33513,14.0406411 C8.3426478,14.0226718 8.34906543,14.003969 8.35658323,13.986183 C8.43249461,13.8052058 8.51335676,13.626979 8.59861956,13.451136 C8.6017367,13.444535 8.60540391,13.4381174 8.60852104,13.4315164 C8.68864975,13.2677751 8.77281238,13.1066009 8.86045886,12.9474438 C8.88062856,12.9111383 8.90208179,12.8757496 8.92243484,12.8398109 C8.99577919,12.7107248 9.07077378,12.5831057 9.14906886,12.4575035 C9.17547283,12.4147804 9.20316031,12.3727908 9.23029773,12.3304344 C9.30620911,12.21235 9.38413749,12.0953658 9.46426618,11.9803985 C9.49360393,11.9384089 9.52367511,11.896786 9.55356293,11.8551631 C9.63644203,11.7400124 9.72170483,11.6265121 9.80898461,11.5146619 C9.83777226,11.4776231 9.86674328,11.4404008 9.896081,11.4037286 C9.9912453,11.2850941 10.08916,11.1690267 10.1889083,11.0544262 C10.2123785,11.0276555 10.2351152,11.0003347 10.2589522,10.9737474 C10.3792369,10.8389772 10.5020887,10.706774 10.6289744,10.578238 C10.633375,10.5734706 10.6377757,10.5687033 10.6421764,10.5643026 C11.1179978,10.0824303 11.638926,9.64584805 12.1976265,9.25932336 C12.2111952,9.2501553 12.2240305,9.24025383 12.2375992,9.23090241 C12.3272627,9.16965989 12.4185764,9.11116779 12.5098901,9.05267566 C12.5551802,9.02352129 12.6001036,8.99381683 12.6459438,8.9653959 C12.7310233,8.91258798 12.8172029,8.861797 12.9037492,8.81137276 C12.958024,8.77965134 13.0122989,8.74811328 13.0673071,8.71730865 C13.1509196,8.67055163 13.235449,8.62489478 13.3207118,8.58015474 C13.3806708,8.5484333 13.4411799,8.5179954 13.501689,8.48737413 C13.5849348,8.44556785 13.668364,8.40431168 13.75271,8.36488908 C13.8179865,8.33408445 13.8843631,8.30474671 13.950373,8.27540898 C14.0325186,8.2387368 14.1146644,8.20188128 14.1980935,8.16722606 C14.2718046,8.13642144 14.3466159,8.10818388 14.4212438,8.07921286 C14.4989886,8.04895831 14.5760003,8.01723689 14.654662,7.98881596 C14.8020841,7.93545794 14.9507899,7.88503371 15.1011458,7.83790996 C15.1666056,7.81719019 15.2333489,7.79940419 15.2995423,7.77996794 C15.3943398,7.75209709 15.4891374,7.72404286 15.585035,7.69892244 C15.6554456,7.68021963 15.726773,7.66371715 15.7977336,7.64666459 C15.8914311,7.6241112 15.9851285,7.60174118 16.0795593,7.58157149 C16.1512534,7.56635254 16.2234976,7.55241711 16.295375,7.53866504 C16.3920063,7.51996223 16.4888208,7.50254295 16.586002,7.48659056 C16.6569626,7.47503881 16.7281066,7.46385381 16.7992506,7.45376896 C16.9011994,7.4391001 17.0035146,7.42626483 17.1063801,7.4147131 C17.1742236,7.40682858 17.2417005,7.39876071 17.3099106,7.39215971 C17.4241445,7.38115808 17.5389284,7.37327355 17.6542624,7.36593911 C17.7118378,7.36245526 17.7690463,7.35732115 17.8269883,7.35457074 C18.0004476,7.34631949 18.1748239,7.34136876 18.3503003,7.34136876 C19.0446879,7.34136876 19.723673,7.40682858 20.3817553,7.53188069 C21.0396539,7.65656608 21.6766495,7.84121046 22.2865078,8.07939623 C23.0489221,8.37717426 23.7695304,8.7587482 24.4367806,9.21311641 C24.570084,9.30388004 24.7013704,9.39739408 24.8304563,9.49420863 C25.0886285,9.68710425 25.3379991,9.8915516 25.5776519,10.1062672 L25.5809524,10.1064505 C25.5809524,10.1064505 16.2830899,-1.81952319 2.68523181,9.56333565 C2.59153443,9.73331118 2.50040406,9.9051203 2.41202413,10.0785797 C2.3947882,10.1128682 2.37846909,10.1477067 2.36123318,10.1821786 C2.29375638,10.3163987 2.22737974,10.4513523 2.16320344,10.5877728 C2.13771629,10.6418642 2.11369601,10.6966891 2.08894229,10.7513307 C2.03521756,10.868865 1.98167619,10.9865827 1.93015179,11.1055839 C1.90264766,11.1695768 1.8762437,11.2346699 1.84947301,11.2990296 C1.80326608,11.4097795 1.7572425,11.5205295 1.71341925,11.6320129 C1.6855484,11.7024235 1.6593278,11.7730174 1.63237375,11.8437947 C1.591851,11.9512442 1.55132825,12.058877 1.51263911,12.1674266 C1.48605179,12.2416878 1.46056463,12.316499 1.43489411,12.3914936 C1.39877202,12.4974762 1.36301665,12.6036421 1.32854481,12.7105415 C1.30360773,12.7882865 1.27977082,12.8660315 1.25593391,12.9439599 C1.22366239,13.0495758 1.19194096,13.1555583 1.16168642,13.262091 C1.13876632,13.3416695 1.11676301,13.4219816 1.09512643,13.5021103 C1.06633877,13.6080929 1.03865129,13.7144421 1.0118806,13.8211583 C0.991344184,13.9029371 0.97135785,13.9845328 0.951921598,14.0666784 C0.926984521,14.1730278 0.90314761,14.2801105 0.880044141,14.3871931 C0.861891416,14.470439 0.844105411,14.5536849 0.827419575,14.6376641 C0.805782993,14.7449303 0.785613298,14.8529298 0.765993685,14.961296 C0.750591374,15.0454586 0.73518906,15.129438 0.721070275,15.2139673 C0.702734189,15.3236171 0.686231711,15.4336336 0.669912595,15.5440169 C0.657627418,15.6278128 0.644792156,15.7116086 0.633423784,15.7959546 C0.618388193,15.9090884 0.605552933,16.022772 0.592717673,16.1364558 C0.583366269,16.2189681 0.57309806,16.3009305 0.564846822,16.3836263 C0.553111727,16.5022608 0.543760323,16.621812 0.534225558,16.7413633 C0.527991289,16.8198418 0.520473494,16.8981368 0.515339389,16.9767986 C0.506538068,17.1093685 0.500853881,17.2426719 0.494802973,17.3757919 C0.49205256,17.4419851 0.487468539,17.5081784 0.485451569,17.5747384 C0.478483856,17.7749685 0.475,17.9759319 0.475,18.1776289 C0.475,18.3558556 0.478300495,18.5333489 0.48361796,18.7101089 C0.485268208,18.7643838 0.487651899,18.8186584 0.489668869,18.8727499 C0.494436251,18.9985355 0.50048716,19.1237709 0.507821594,19.2486396 C0.51130545,19.3069485 0.514972668,19.3652573 0.518823246,19.4233826 C0.527991289,19.5548523 0.538626219,19.6859554 0.550544675,19.8166916 C0.554578614,19.861065 0.55806247,19.9058049 0.56227977,19.949995 C0.579699051,20.126388 0.599318663,20.3020477 0.621872049,20.4769741 C0.623705658,20.4925598 0.62627271,20.5079621 0.628289679,20.5235478 C0.649009456,20.6821548 0.672112925,20.8400286 0.697050001,20.9971688 C0.704201075,21.0428257 0.712085591,21.0881158 0.719603388,21.1335894 C0.741606691,21.2656091 0.76489352,21.3970788 0.789830599,21.528182 C0.798265198,21.5723719 0.806699796,21.6167451 0.815134396,21.6609353 C0.845572299,21.8147749 0.87784381,21.9678813 0.912132291,22.120254 C0.915616148,22.1358398 0.918733283,22.1514254 0.922217139,22.1670111 C0.962739889,22.3446879 1.00582969,22.5212643 1.05166991,22.696924 C1.0540536,22.7057253 1.05662065,22.7148934 1.05900434,22.723878 C1.10117734,22.8843188 1.14555067,23.0436594 1.19194096,23.2020833 C1.20092565,23.2327044 1.21009369,23.2629591 1.21907837,23.2932136 C1.26271826,23.4391689 1.30800839,23.5847573 1.35513213,23.7292458 C1.36264993,23.7521658 1.369801,23.7749025 1.3773188,23.797456 C1.49100253,24.1408909 1.61440439,24.4797416 1.74789109,24.8136418 C1.74807445,24.8141918 1.74825781,24.8145586 1.74844118,24.8149254 C1.81371764,24.9777498 1.88156116,25.1392908 1.95142165,25.2997314 C1.95838936,25.3158671 1.96554044,25.332003 1.97250815,25.3483221 C2.04181855,25.5061958 2.11314593,25.6629692 2.18667364,25.8186426 C2.18795716,25.8212097 2.18905733,25.8237768 2.19015749,25.8263439 C2.34693103,26.1565768 2.51323934,26.4813089 2.6890824,26.8003568 L2.68926574,26.8003568 C9.17602291,31.9262096 18.6279085,32.0118391 25.220465,26.5522694" id="Path" fill="url(#linearGradient-5)"></path>
                        <path d="M28.1439127,24.174251 C26.4168536,29.5805873 25.9513046,33.331565 25.9251109,36.5653834 C25.9248868,36.59305 25.9246948,36.6206787 25.9245346,36.6482703 C25.9244044,36.6706519 25.9242953,36.6930088 25.9242067,36.7153418 C25.9217679,37.3296692 25.9348762,37.9257924 25.9578117,38.5116302 C26.2511496,38.1524978 26.8021632,37.4260175 26.7670433,37.1154654 C26.7319236,36.8049134 26.3365381,36.832297 26.3271941,36.6021715 C26.2859062,35.590402 26.4876181,33.742384 26.6134372,33.5050875 C26.9131002,33.3173365 27.4559268,33.0524423 27.7651509,32.8355725 C28.6035117,32.2484159 29.3382181,31.6443094 29.9775278,31.0571527 C29.7119817,30.9178605 29.3573408,30.7631398 28.9229492,30.6514453 C28.5033343,30.5434449 28.1304398,30.5065032 27.8375134,30.4982455 C28.0461257,30.3448287 28.2866817,30.1911944 28.5617892,30.0514677 C29.5694299,29.5390638 30.5405636,29.4610514 31.1711812,29.4734377 C31.3322039,29.2846002 31.5962287,29.0192714 31.8317867,28.6400752 C32.9934964,26.7710394 34.0389483,24.2277079 34.8579688,21.7067589 C35.5316126,19.6332395 35.7904223,17.2285483 36.2222063,13.838164 C35.6867681,14.0391707 35.1293821,14.264298 34.5543944,14.5165885 C33.9718012,14.7719213 33.4222382,15.0331213 32.9054882,15.2941039 C32.9465588,15.1065703 32.9619873,15.0372502 33.0030579,14.8497163 C33.3624796,14.7680099 33.8905293,14.5035503 34.4481327,14.2286602 C34.8588381,14.0261324 35.6446109,13.5674027 36.2139486,12.8157465 C36.6261753,12.2711815 36.4210398,9.41471433 36.4369029,8.91795629 C33.9961393,11.8991563 30.4347363,17.0032037 28.1439127,24.174251 Z" id="Path" fill="#3889FF" transform="translate(31.199028, 23.714793) rotate(20.000000) translate(-31.199028, -23.714793) "></path>
                        <path d="M44.88915,17.9714987 C44.88915,15.927298 45.63847,14.1715691 47.1371326,12.7042594 C48.6295245,11.2369497 50.4228761,10.5033058 52.5172413,10.5033058 C54.5865243,10.5033058 56.3610645,11.2432201 57.8409154,12.723071 C59.3270367,14.2029218 60.0700864,15.9805973 60.0700864,18.0561508 C60.0700864,20.1442455 59.3239016,21.9156505 57.8315097,23.3704191 C56.3328471,24.8314583 54.5238193,25.561967 52.4043719,25.561967 C50.5294762,25.561967 48.8458575,24.9129742 47.3534656,23.6149695 C45.7105803,22.1790125 44.88915,20.2978744 44.88915,17.9714987 Z M47.0995094,17.9997162 C47.0995094,19.6049781 47.6387689,20.92491 48.7173043,21.9595514 C49.7895692,22.9941929 51.0279851,23.5115059 52.4325893,23.5115059 C53.956334,23.5115059 55.2417784,22.9847872 56.288961,21.9313341 C57.3361436,20.8653398 57.8597269,19.5673546 57.8597269,18.0373393 C57.8597269,16.4885123 57.3424139,15.190527 56.3077725,14.1433444 C55.2794016,13.0898913 54.0064981,12.5631726 52.489024,12.5631726 C50.9778204,12.5631726 49.7017816,13.0898913 48.6608696,14.1433444 C47.6199576,15.1842565 47.0995094,16.4697009 47.0995094,17.9997162 Z M62.4215325,16.1373707 L64.5472398,16.1373707 L64.5472398,16.9838914 C65.2871653,16.2502365 66.1211365,15.8834146 67.0491785,15.8834146 C68.1151727,15.8834146 68.9460088,16.2188842 69.5417114,16.8898336 C70.0558968,17.460454 70.3129859,18.3916174 70.3129859,19.6833515 L70.3129859,25.298605 L68.1872785,25.298605 L68.1872785,20.1818582 C68.1872785,19.2788983 68.0618692,18.6549875 67.811047,18.310107 C67.5664955,17.958956 67.1212929,17.7833831 66.4754257,17.7833831 C65.7731235,17.7833831 65.2746219,18.0153901 64.979906,18.4794111 C64.6914605,18.9371616 64.5472398,19.7366453 64.5472398,20.8778862 L64.5472398,25.298605 L62.4215325,25.298605 L62.4215325,16.1373707 Z M81.3271595,21.2164945 L74.7619218,21.2164945 C74.8183569,21.968961 75.062905,22.56779 75.4955731,23.0129993 C75.9282414,23.4519382 76.4831771,23.6714042 77.1603969,23.6714042 C77.6871235,23.6714042 78.1229206,23.5459951 78.4678011,23.2951729 C78.8064109,23.0443507 79.1920443,22.5803366 79.6247126,21.9031167 L81.4118116,22.9001299 C81.1359073,23.3704215 80.8443309,23.7732986 80.5370736,24.1087733 C80.2298163,24.4442478 79.9006172,24.7201481 79.5494662,24.9364822 C79.1983151,25.1528164 78.8189523,25.3111455 78.4113664,25.4114743 C78.0037803,25.5118032 77.5617128,25.561967 77.0851507,25.561967 C75.7181699,25.561967 74.6208393,25.1230346 73.793126,24.2451571 C72.9654129,23.361009 72.5515624,22.1884328 72.5515624,20.7273937 C72.5515624,19.2788956 72.952872,18.1063194 73.7555031,17.2096302 C74.5644045,16.3254821 75.6366532,15.8834146 76.9722813,15.8834146 C78.3204505,15.8834146 79.3864287,16.3129412 80.1702481,17.172007 C80.9477967,18.0248025 81.3365652,19.2067843 81.3365652,20.7179878 L81.3271595,21.2164945 Z M79.1544233,19.48583 C78.8597073,18.3571303 78.1480099,17.7927888 77.0193103,17.7927888 C76.7622174,17.7927888 76.5208047,17.8319792 76.2950647,17.9103612 C76.069325,17.988743 75.8639673,18.1016114 75.6789859,18.2489694 C75.4940046,18.3963275 75.3356754,18.573468 75.2039938,18.7803963 C75.0723122,18.9873246 74.9719848,19.2224668 74.9030088,19.48583 L79.1544233,19.48583 Z M94.7774315,11.5567537 L94.7774315,14.1527502 C93.5107795,13.0930265 92.2002533,12.5631726 90.8458136,12.5631726 C89.3534216,12.5631726 88.0961944,13.099297 87.074094,14.1715618 C86.045723,15.237556 85.5315452,16.5418118 85.5315452,18.0843681 C85.5315452,19.6081129 86.045723,20.8935572 87.074094,21.9407398 C88.1024648,22.9879224 89.3628275,23.5115059 90.8552193,23.5115059 C91.6264975,23.5115059 92.2817606,23.3860967 92.8210284,23.1352745 C93.1220149,23.0098634 93.4339702,22.8405609 93.7569039,22.6273621 C94.0798374,22.4141633 94.4200099,22.1570745 94.7774315,21.8560878 L94.7774315,24.4991133 C93.5233207,25.2076859 92.2065241,25.561967 90.827002,25.561967 C88.7514485,25.561967 86.9800434,24.8377288 85.5127336,23.3892307 C84.0516945,21.9281915 83.3211859,20.1661921 83.3211859,18.1031797 C83.3211859,16.2533662 83.9325558,14.6042351 85.1553138,13.155737 C86.660247,11.3811701 88.6072248,10.4939 90.9963061,10.4939 C92.3005814,10.4939 93.5609439,10.848181 94.7774315,11.5567537 Z M96.7056174,20.6521474 C96.7056174,19.3290604 97.1790371,18.2035127 98.1258908,17.2754707 C99.0727447,16.3474287 100.226509,15.8834146 101.58722,15.8834146 C102.954201,15.8834146 104.114236,16.3505639 105.06736,17.2848764 C106.007943,18.2191891 106.478228,19.3666833 106.478228,20.7273937 C106.478228,22.1006451 106.004808,23.2512745 105.057954,24.1793167 C104.10483,25.1010882 102.935389,25.561967 101.549596,25.561967 C100.176345,25.561967 99.0257156,25.0916824 98.0976735,24.1510993 C97.1696314,23.2230572 96.7056174,22.0567516 96.7056174,20.6521474 Z M98.8689478,20.6897706 C98.8689478,21.6052715 99.1134959,22.3295096 99.6025991,22.8625067 C100.104244,23.4017744 100.765777,23.6714042 101.58722,23.6714042 C102.414933,23.6714042 103.076466,23.4049096 103.57184,22.8719126 C104.067214,22.3389154 104.314897,21.6272182 104.314897,20.7367994 C104.314897,19.8463807 104.067214,19.1346835 103.57184,18.6016864 C103.070196,18.0624187 102.408662,17.7927888 101.58722,17.7927888 C100.778318,17.7927888 100.123055,18.0624187 99.6214107,18.6016864 C99.1197663,19.140954 98.8689478,19.8369751 98.8689478,20.6897706 Z M108.716804,16.1373707 L110.842512,16.1373707 L110.842512,16.9838914 C111.582437,16.2502365 112.416408,15.8834146 113.34445,15.8834146 C114.410445,15.8834146 115.241281,16.2188842 115.836983,16.8898336 C116.351169,17.460454 116.608258,18.3916174 116.608258,19.6833515 L116.608258,25.298605 L114.48255,25.298605 L114.48255,20.1818582 C114.48255,19.2788983 114.357141,18.6549875 114.106319,18.310107 C113.861767,17.958956 113.416565,17.7833831 112.770697,17.7833831 C112.068395,17.7833831 111.569894,18.0153901 111.275178,18.4794111 C110.986732,18.9371616 110.842512,19.7366453 110.842512,20.8778862 L110.842512,25.298605 L108.716804,25.298605 L108.716804,16.1373707 Z M121.461642,18.1125855 L121.461642,25.298605 L119.345341,25.298605 L119.345341,18.1125855 L118.442386,18.1125855 L118.442386,16.1373707 L119.345341,16.1373707 L119.345341,12.7795057 L121.461642,12.7795057 L121.461642,16.1373707 L123.107655,16.1373707 L123.107655,18.1125855 L121.461642,18.1125855 Z M124.54674,16.1373707 L126.663041,16.1373707 L126.663041,16.955674 C127.051816,16.5480879 127.396691,16.2690525 127.697678,16.1185592 C128.004935,15.9617953 128.368621,15.8834146 128.788748,15.8834146 C129.346828,15.8834146 129.92998,16.0652579 130.538224,16.42895 L129.569429,18.3665417 C129.168114,18.0780963 128.77621,17.9338756 128.393706,17.9338756 C127.239924,17.9338756 126.663041,18.8054697 126.663041,20.5486838 L126.663041,25.298605 L124.54674,25.298605 L124.54674,16.1373707 Z M138.504924,16.1373707 L140.630631,16.1373707 L140.630631,25.298605 L138.504924,25.298605 L138.504924,24.3392149 C137.633317,25.154387 136.695883,25.561967 135.692594,25.561967 C134.425942,25.561967 133.378775,25.1042233 132.551062,24.1887224 C131.729619,23.2544097 131.318905,22.0881041 131.318905,20.6897706 C131.318905,19.3165191 131.729619,18.1721601 132.551062,17.2566592 C133.372506,16.3411582 134.40086,15.8834146 135.63616,15.8834146 C136.702154,15.8834146 137.6584,16.3223468 138.504924,17.2002245 L138.504924,16.1373707 Z M133.482235,20.6897706 C133.482235,21.5676481 133.717377,22.2824806 134.187669,22.8342895 C134.670501,23.3923687 135.278736,23.6714042 136.012392,23.6714042 C136.79621,23.6714042 137.429527,23.4017744 137.912359,22.8625067 C138.395193,22.3044274 138.636605,21.5958654 138.636605,20.7367994 C138.636605,19.8777335 138.395193,19.1691714 137.912359,18.6110921 C137.429527,18.0655539 136.802481,17.7927888 136.031203,17.7927888 C135.303818,17.7927888 134.695584,18.0686891 134.20648,18.6204979 C133.723648,19.1785773 133.482235,19.8683278 133.482235,20.6897706 Z M150.43146,16.5324137 L150.43146,19.3447434 C149.948626,18.7553113 149.515965,18.3508666 149.133461,18.1313971 C148.757227,17.9056571 148.31516,17.7927888 147.807245,17.7927888 C147.010885,17.7927888 146.349351,18.0718244 145.822624,18.6299036 C145.295898,19.187983 145.032539,19.8871394 145.032539,20.7273937 C145.032539,21.5864596 145.286492,22.2918863 145.794407,22.8436952 C146.308592,23.395504 146.963855,23.6714042 147.760216,23.6714042 C148.268132,23.6714042 148.71647,23.5616712 149.105243,23.3422017 C149.481477,23.1290029 149.923544,22.7151525 150.43146,22.1006382 L150.43146,24.8941563 C149.572394,25.3393656 148.713339,25.561967 147.854275,25.561967 C146.437129,25.561967 145.252012,25.1042233 144.298887,24.1887224 C143.345764,23.2669509 142.869208,22.1225919 142.869208,20.755611 C142.869208,19.3886302 143.352033,18.2348655 144.317699,17.2942823 C145.283365,16.3536991 146.468482,15.8834146 147.873086,15.8834146 C148.776046,15.8834146 149.628828,16.0997454 150.43146,16.5324137 Z M154.664062,18.1125855 L154.664062,25.298605 L152.54776,25.298605 L152.54776,18.1125855 L151.644805,18.1125855 L151.644805,16.1373707 L152.54776,16.1373707 L152.54776,12.7795057 L154.664062,12.7795057 L154.664062,16.1373707 L156.310075,16.1373707 L156.310075,18.1125855 L154.664062,18.1125855 Z" id="Shape" fill="#4A4A4A"></path>
                    </g>
                </g>
            </g>
        </g>
    </g>
</svg>