<?xml version="1.0" encoding="UTF-8"?>
<svg width="68px" height="68px" viewBox="0 0 68 68" version="1.1" xmlns="http://www.w3.org/2000/svg" xmlns:xlink="http://www.w3.org/1999/xlink">
    <!-- Generator: Sketch 57.1 (83088) - https://sketch.com -->
    <title>caseapp/hippius</title>
    <desc>Created with Sketch.</desc>
    <defs>
        <rect id="path-1" x="0" y="0" width="68" height="68"></rect>
    </defs>
    <g id="页面-1" stroke="none" stroke-width="1" fill="none" fill-rule="evenodd">
        <g id="画板" transform="translate(-133.000000, -568.000000)">
            <g id="caseapp/hippius" transform="translate(133.000000, 568.000000)">
                <mask id="mask-2" fill="white">
                    <use xlink:href="#path-1"></use>
                </mask>
                <use id="矩形" fill-opacity="0.01" fill="#FFFFFF" xlink:href="#path-1"></use>
                <g id="海马" mask="url(#mask-2)" fill="#1F8CEB" fill-rule="nonzero">
                    <g transform="translate(19.000000, 9.000000)" id="Shape">
                        <path d="M17.8561446,0 C18.5095181,0.338114755 19.1546987,0.68852459 19.7957831,1.04713115 C19.7015662,1.6454918 19.6053012,2.24590164 19.5418072,2.84836065 C22.536265,3.82786885 25.3955422,5.77459018 26.710482,8.72540983 C27.9066265,11.2786885 27.5440965,14.4364754 25.870723,16.6905738 C25.2480722,17.6168033 24.3898795,18.3340164 23.6013252,19.1065574 C21.176265,21.7315574 19.6708434,25.3155738 19.9022891,28.9180328 C20.1828916,31.5778688 21.5961446,33.9139345 22.7595181,36.2643443 C24.0744579,38.7254098 24.1092771,41.7868853 22.9766265,44.3237705 C21.546988,47.6454918 18.0793976,49.875 14.4807229,49.9241803 C15.8325301,49.6413935 17.1781927,49.1086065 18.1285542,48.0655738 C19.963735,46.2110655 20.3692771,43.0860655 18.9601205,40.8688525 C17.903253,39.2663935 16.2708434,38.192623 14.7408434,37.090164 C12.4263855,35.4918033 10.0709638,33.8360655 8.36891568,31.557377 C6.6013253,29.1967212 5.70012047,26.092213 6.35759035,23.1741804 C6.8819277,20.6352459 8.4426506,18.4262295 10.3884337,16.7643443 C12.1212048,15.2479509 14.1489156,14.1147541 16.2421686,13.1782788 C14.5073494,12.4713115 12.5677109,12.567623 10.7755422,12.9918033 C8.67,13.4918033 6.56445782,14.0102459 4.51831325,14.7213115 C3.84855422,14.9590164 3.16650602,15.1598361 2.46807229,15.2889344 C1.60168675,14.375 0.860240965,13.3545083 0.00409638555,12.4323771 C0.993373495,11.9221312 2.09325301,11.7090164 3.12759035,11.317623 C8.0780723,9.5532787 12.686506,6.60040982 15.9922891,2.47336065 C16.649759,1.67622951 17.1638554,0.770491803 17.8561446,0 Z"></path>
                        <path d="M22.1204819,25.635246 C22.7431325,23.1536885 24.1789156,20.932377 26.0038555,19.1618852 C26.7596385,20.6844262 27.677229,22.1290984 28.7709637,23.432377 C25.860482,26.3770492 23.746747,30.1905737 23.2387951,34.3340165 C21.8255421,31.7008197 21.3524096,28.5389345 22.1204819,25.635246 Z"></path>
                        <path d="M8.14771085,42.1844263 C8.97108432,41.045082 10.8574699,41.0553278 11.666506,42.2090165 C12.2461446,42.9016393 12.1396385,43.8483607 11.9348193,44.6639345 C11.5559036,46.1188525 12.2891566,47.7479508 13.6,48.4631148 C14.216506,48.840164 14.9559036,48.8688525 15.6543374,48.9364755 C13.5877109,49.4918033 11.2445783,49.342213 9.41963855,48.159836 C7.52506025,46.9180328 6.84915663,44.0758198 8.14771085,42.1844263 Z"></path>
                    </g>
                </g>
            </g>
        </g>
    </g>
</svg>