<?xml version="1.0" encoding="UTF-8"?>
<svg width="68px" height="68px" viewBox="0 0 68 68" version="1.1" xmlns="http://www.w3.org/2000/svg" xmlns:xlink="http://www.w3.org/1999/xlink">
    <!-- Generator: Sketch 57.1 (83088) - https://sketch.com -->
    <title>caseapp/choerodon</title>
    <desc>Created with Sketch.</desc>
    <defs>
        <rect id="path-1" x="0" y="0" width="68" height="68"></rect>
    </defs>
    <g id="页面-1" stroke="none" stroke-width="1" fill="none" fill-rule="evenodd">
        <g id="画板" transform="translate(-133.000000, -655.000000)">
            <g id="caseapp/choerodon" transform="translate(133.000000, 655.000000)">
                <mask id="mask-2" fill="white">
                    <use xlink:href="#path-1"></use>
                </mask>
                <use id="矩形" fill-opacity="0.01" fill="#FFFFFF" xlink:href="#path-1"></use>
                <g id="编组-9" mask="url(#mask-2)">
                    <g transform="translate(9.000000, 16.000000)">
                        <path d="M35.2813303,31.1845958 C36.969634,31.566474 41.5168768,28.3545793 41.9889547,28.7791063 C42.3080853,29.0663728 40.690863,31.1787132 40.690863,31.1787132 L39.1800176,32.501806 C39.1800176,32.501806 34.7759177,31.0703755 35.2813303,31.1845958 Z M42.5448597,14.6059835 C44.0968832,15.372191 45.3263448,19.5762827 45.960194,19.5434382 C46.389133,19.5213785 46.4626653,16.8619572 46.4626653,16.8619572 L46.1214751,14.8829554 C46.1214751,14.8829554 42.080135,14.3765624 42.5443694,14.6059835 L42.5448597,14.6059835 Z" id="形状" stroke="#000000" stroke-width="0.5" fill="#FFFFFF" fill-rule="nonzero"></path>
                        <path d="M28.8923461,1.72310897 L21.5832267,-3.90798505e-14 C21.5832267,-3.90798505e-14 11.7960658,3.57318387 6.02328306,9.2729244 C10.0293276,10.0901143 11.1965317,9.87343896 11.1965317,9.87343896 L28.8923461,1.72310897 Z" id="路径" stroke="#000000" stroke-width="0.822526316" fill="#FF5F2E" fill-rule="nonzero" stroke-linejoin="round"></path>
                        <path d="M7.81597009e-14,19.4042169 C7.81597009e-14,19.4042169 15.9565284,2.00841464 28.8923461,1.72310897 C41.828164,1.4378033 45.7087133,13.9422311 46.7146363,16.5295908 C41.8438509,17.8580759 37.0122828,18.3561353 31.3880354,16.7688162 C30.6429072,25.236806 34.9577878,30.7169298 41.8492432,30.9718421 C35.4636906,35.8269406 31.6199076,36.5554015 26.8800098,36.220584 C19.1336178,35.6739933 7.04587348,29.3222655 1.58388765,13.0799413 C0.661339492,15.0691146 0.123904988,17.2150269 7.81597009e-14,19.4042169 Z" id="路径" stroke="none" fill="#5CC2F2" fill-rule="nonzero"></path>
                        <path d="M24.1960776,30.1634761 C14.6702017,29.1168651 8.68221423,23.7313529 2.8844305,16.4952757 C8.79153238,30.2213216 19.6968758,35.714191 26.8755979,36.220584 C31.6154956,36.5549113 35.4592786,35.8269406 41.8443411,30.9718421 C39.3322668,30.9361112 36.9152396,30.0058704 35.0273984,28.3482065 C33.3018384,29.3065786 30.6713397,30.8752695 24.1960776,30.1634761 L24.1960776,30.1634761 Z" id="路径" stroke="none" fill="#B2E7FB" fill-rule="nonzero" opacity="0.9"></path>
                        <path d="M-1.0658141e-14,19.4042169 C-1.0658141e-14,19.4042169 15.9565284,2.00841464 28.8923461,1.72310897 C41.828164,1.4378033 46.0695122,13.59908 46.7151265,16.5295908 C42.2933789,17.8267021 37.684859,18.5718303 31.3885256,16.7688162 C30.6433974,25.236806 34.958278,30.7169298 41.8497335,30.9718421 C35.4641808,35.8269406 31.6203978,36.5554015 26.8805,36.220584 C19.1336178,35.6739933 7.04587348,29.3222655 1.58388765,13.0799413 C0.661339492,15.0691146 0.123904988,17.2150269 -1.0658141e-14,19.4042169 Z" id="路径" stroke="#000000" stroke-width="0.822526316" fill="none" stroke-linecap="round" stroke-linejoin="round"></path>
                        <path d="M27.3417932,18.997828 L18.7757602,14.9216826 C16.4738067,17.5446655 14.9761334,20.7752149 14.46186,24.2269612 C20.5013201,23.17986 27.3417932,18.9983182 27.3417932,18.9983182 L27.3417932,18.997828 Z" id="路径" stroke="#000000" stroke-width="0.822526316" fill="#FF5F2E" fill-rule="nonzero" stroke-linejoin="round"></path>
                        <circle id="椭圆形" stroke="#000000" stroke-width="0.822631579" fill="#FFFFFF" fill-rule="nonzero" stroke-linecap="round" stroke-linejoin="round" cx="35.7534082" cy="11.9833282" r="2.71040385"></circle>
                        <ellipse id="椭圆形" stroke="none" fill="#000000" fill-rule="nonzero" cx="36.0892061" cy="11.9833282" rx="1.39172301" ry="1.3328971"></ellipse>
                        <path d="M17.9115094,16.5859656 C17.9115094,16.5859656 19.8282537,18.0919089 21.6778384,18.3561353 M16.1364376,18.9120402 C17.4721112,19.2976939 18.8369704,19.5739447 20.2174852,19.738054 M15.09767,21.6479352 C16.6201874,21.6672602 18.1394999,21.5033304 19.6228533,21.1596802" id="形状" stroke="#000000" stroke-width="0.822526316" fill="none" stroke-linecap="round" stroke-linejoin="round"></path>
                        <path d="M43.2801835,21.0591859 C45.4402939,20.6824464 47.6614757,21.1822564 49.452002,22.4479676 C49.4833164,22.2822248 49.4969554,22.1136271 49.4926899,21.9450061 C49.4191576,18.9488064 45.4018381,18.2698573 42.8880108,18.5566336 C40.3741835,18.8434099 37.5951494,20.4547497 37.3122949,23.6828216 C37.275979,24.1658861 37.344197,24.6511037 37.512303,25.1054282 C38.7330927,22.9622057 40.8489505,21.4777781 43.2796933,21.0591859 L43.2801835,21.0591859 Z" id="路径" stroke="#231815" stroke-width="0.5" fill="#FFC7C7" fill-rule="nonzero" stroke-linejoin="round"></path>
                        <path d="M43.7954004,24.0382281 C45.1548321,23.8011275 46.5528587,24.1114672 47.6842834,24.9014983 C48.3999986,24.0632291 49.2583667,23.4739895 49.452002,22.4479676 C47.5486395,21.105987 45.1674378,20.6292941 42.8941565,21.1351522 C40.6208751,21.6410103 38.6665067,23.0824685 37.5118127,25.104938 C37.9611199,26.2035123 38.6832659,27.1692982 39.6099369,27.9109338 C40.1195107,25.9077221 41.7587188,24.3910035 43.7954004,24.0382281 L43.7954004,24.0382281 Z" id="路径" stroke="#231815" stroke-width="0.5" fill="#FFE2E2" fill-rule="nonzero" stroke-linejoin="round"></path>
                        <path d="M39.6099369,27.9109338 C41.8404194,29.8237565 45.0077045,30.9012511 45.8930344,29.713948 C46.9690584,28.2707523 46.3685438,27.009917 47.1666154,25.6230962 C47.3164812,25.36707 47.4897801,25.1255019 47.6842834,24.9014983 C46.2732148,23.9188936 44.4699087,23.6909656 42.8587304,24.2915748 C41.2475523,24.892184 40.0334801,26.2449195 39.6099369,27.9114241 L39.6099369,27.9109338 Z" id="路径" stroke="#231815" stroke-width="0.5" fill="#F6F6F6" fill-rule="nonzero" stroke-linejoin="round"></path>
                        <path d="M42.8880108,18.6272247 C40.3746738,18.9140011 37.5951494,20.5253408 37.3122949,23.7529224 C37.275807,24.2359521 37.3438582,24.721172 37.5118127,25.175529 C37.9611389,26.2740926 38.6832816,27.2398742 39.6099369,27.981525 C41.8404194,29.8938573 45.0072143,30.9718421 45.8930344,29.7840489 C46.9690584,28.3408532 46.3685438,27.0800179 47.1666154,25.6936872 C47.316467,25.4376519 47.4897668,25.1960825 47.6842834,24.9720894 C48.3999986,24.1338202 49.2578765,23.5445806 49.452002,22.5185587 C49.4831794,22.3526368 49.4966541,22.1838739 49.4921997,22.0151069 C49.4196478,19.0189072 45.4018381,18.3404484 42.8880108,18.6272247 L42.8880108,18.6272247 Z" id="路径" stroke="#000000" stroke-width="0.822526316" fill="none" stroke-linecap="round" stroke-linejoin="round"></path>
                        <circle id="椭圆形" stroke="none" fill="#FFFFFF" fill-rule="nonzero" cx="36.4789278" cy="11.4887004" r="1"></circle>
                    </g>
                </g>
            </g>
        </g>
    </g>
</svg>